<svg width="295" height="314" xmlns="http://www.w3.org/2000/svg" xmlns:xlink="http://www.w3.org/1999/xlink" xml:space="preserve" overflow="hidden"><g transform="translate(-15 -145)"><path d="M47.4529 43.8286 54.28 43.8286" stroke="#333333" stroke-width="0.842857" fill="none" transform="matrix(1 0 0 1.00146 15 145)"/><path d="M47.4529 68.0186 54.28 68.0186" stroke="#333333" stroke-width="0.842857" fill="none" transform="matrix(1 0 0 1.00146 15 145)"/><path d="M47.4529 92.2086 54.28 92.2086" stroke="#333333" stroke-width="0.842857" fill="none" transform="matrix(1 0 0 1.00146 15 145)"/><path d="M47.4529 116.399 54.28 116.399" stroke="#333333" stroke-width="0.842857" fill="none" transform="matrix(1 0 0 1.00146 15 145)"/><path d="M47.4529 140.589 54.28 140.589" stroke="#333333" stroke-width="0.842857" fill="none" transform="matrix(1 0 0 1.00146 15 145)"/><path d="M47.4529 164.779 54.28 164.779" stroke="#333333" stroke-width="0.842857" fill="none" transform="matrix(1 0 0 1.00146 15 145)"/><path d="M47.4529 188.969 54.28 188.969" stroke="#333333" stroke-width="0.842857" fill="none" transform="matrix(1 0 0 1.00146 15 145)"/><path d="M47.4529 213.159 54.28 213.159" stroke="#333333" stroke-width="0.842857" fill="none" transform="matrix(1 0 0 1.00146 15 145)"/><path d="M47.4529 237.349 54.28 237.349" stroke="#333333" stroke-width="0.842857" fill="none" transform="matrix(1 0 0 1.00146 15 145)"/><path d="M47.4529 261.539 54.28 261.539" stroke="#333333" stroke-width="0.842857" fill="none" transform="matrix(1 0 0 1.00146 15 145)"/><path d="M47.4529 285.729 54.28 285.729" stroke="#333333" stroke-width="0.842857" fill="none" transform="matrix(1 0 0 1.00146 15 145)"/><path d="M54.28 43.4071 54.28 286.15" stroke="#333333" stroke-width="0.842857" fill="none" transform="matrix(1 0 0 1.00146 15 145)"/><path d="M29.7529 40.6257 29.7529 40.6257 28.6571 41.2157 28.4886 40.5414 29.9214 39.7829 30.68 39.7829 30.68 46.3571 29.8371 46.3571 29.8371 40.6257Z" fill="#666666" transform="matrix(1 0 0 1.00146 15 145)"/><path d="M37.6757 42.9857C37.6757 45.2614 36.8329 46.4414 35.4 46.4414 34.1357 46.4414 33.2086 45.2614 33.2086 43.07 33.2086 40.8786 34.1357 39.6143 35.4843 39.6143 36.8329 39.6986 37.6757 40.8786 37.6757 42.9857ZM34.0514 43.07C34.0514 44.7557 34.5571 45.7671 35.4 45.7671 36.3271 45.7671 36.7486 44.6714 36.7486 43.07 36.7486 41.4686 36.3271 40.3729 35.4 40.3729 34.6414 40.3729 34.0514 41.3 34.0514 43.07Z" fill="#666666" transform="matrix(1 0 0 1.00146 15 145)"/><path d="M43.07 42.9857C43.07 45.2614 42.2271 46.4414 40.7943 46.4414 39.53 46.4414 38.6029 45.2614 38.6029 43.07 38.6029 40.8786 39.53 39.6143 40.8786 39.6143 42.3114 39.6986 43.07 40.8786 43.07 42.9857ZM39.53 43.07C39.53 44.7557 40.0357 45.7671 40.8786 45.7671 41.8057 45.7671 42.2271 44.6714 42.2271 43.07 42.2271 41.4686 41.8057 40.3729 40.8786 40.3729 40.12 40.3729 39.53 41.3 39.53 43.07Z" fill="#666666" transform="matrix(1 0 0 1.00146 15 145)"/><path d="M161.07 21.5771 157.951 21.5771 157.951 24.4429 161.407 24.4429 161.407 25.2857 156.94 25.2857 156.94 17.3629 161.239 17.3629 161.239 18.2057 157.951 18.2057 157.951 20.7343 161.07 20.7343 161.07 21.5771Z" fill="#1A1A1A" transform="matrix(1 0 0 1.00146 15 145)"/><path d="M162.924 24.19C163.261 24.3586 163.767 24.6114 164.273 24.6114 165.031 24.6114 165.369 24.2743 165.369 23.7686 165.369 23.2629 165.031 23.01 164.273 22.7571 163.261 22.42 162.756 21.83 162.756 21.1557 162.756 20.2286 163.514 19.47 164.694 19.47 165.284 19.47 165.79 19.6386 166.127 19.8071L165.874 20.5657C165.621 20.3971 165.2 20.2286 164.694 20.2286 164.104 20.2286 163.767 20.5657 163.767 20.9871 163.767 21.4929 164.104 21.6614 164.863 21.9143 165.874 22.2514 166.38 22.7571 166.38 23.6 166.38 24.6114 165.621 25.2857 164.273 25.2857 163.683 25.2857 163.093 25.1171 162.671 24.8643L162.924 24.19Z" fill="#1A1A1A" transform="matrix(1 0 0 1.00146 15 145)"/><path d="M172.111 25.1171C171.859 25.2857 171.269 25.4543 170.51 25.4543 168.824 25.4543 167.644 24.2743 167.644 22.5043 167.644 20.7343 168.824 19.47 170.679 19.47 171.269 19.47 171.859 19.6386 172.111 19.8071L171.859 20.65C171.606 20.4814 171.184 20.3971 170.679 20.3971 169.33 20.3971 168.656 21.3243 168.656 22.5886 168.656 23.9371 169.499 24.6957 170.679 24.6957 171.269 24.6957 171.69 24.5271 171.943 24.4429L172.111 25.1171Z" fill="#1A1A1A" transform="matrix(1 0 0 1.00146 15 145)"/><path d="M176.747 25.2857 176.663 24.5271 176.663 24.5271C176.326 24.9486 175.736 25.37 174.893 25.37 173.713 25.37 173.123 24.5271 173.123 23.7686 173.123 22.42 174.387 21.6614 176.579 21.6614L176.579 21.5771C176.579 21.0714 176.41 20.2286 175.314 20.2286 174.809 20.2286 174.219 20.3971 173.797 20.65L173.544 19.9757C174.05 19.6386 174.724 19.47 175.399 19.47 177.169 19.47 177.59 20.65 177.59 21.83L177.59 23.9371C177.59 24.4429 177.59 24.9486 177.674 25.2857L176.747 25.2857ZM176.579 22.3357C175.483 22.3357 174.134 22.5043 174.134 23.6 174.134 24.2743 174.556 24.6114 175.146 24.6114 175.904 24.6114 176.326 24.1057 176.494 23.6843 176.494 23.6 176.579 23.4314 176.579 23.3471L176.579 22.3357Z" fill="#1A1A1A" transform="matrix(1 0 0 1.00146 15 145)"/><path d="M179.529 16.9414 180.54 16.9414 180.54 25.2857 179.529 25.2857 179.529 16.9414Z" fill="#1A1A1A" transform="matrix(1 0 0 1.00146 15 145)"/><path d="M185.766 25.2857 185.681 24.5271 185.681 24.5271C185.344 24.9486 184.754 25.37 183.911 25.37 182.731 25.37 182.141 24.5271 182.141 23.7686 182.141 22.42 183.406 21.6614 185.597 21.6614L185.597 21.5771C185.597 21.0714 185.429 20.2286 184.333 20.2286 183.827 20.2286 183.237 20.3971 182.816 20.65L182.563 19.9757C183.069 19.6386 183.743 19.47 184.417 19.47 186.187 19.47 186.609 20.65 186.609 21.83L186.609 23.9371C186.609 24.4429 186.609 24.9486 186.693 25.2857L185.766 25.2857ZM185.681 22.3357C184.586 22.3357 183.237 22.5043 183.237 23.6 183.237 24.2743 183.659 24.6114 184.249 24.6114 185.007 24.6114 185.429 24.1057 185.597 23.6843 185.597 23.6 185.681 23.4314 185.681 23.3471L185.681 22.3357Z" fill="#1A1A1A" transform="matrix(1 0 0 1.00146 15 145)"/><path d="M33.7986 69.7886C33.9671 69.7886 34.22 69.7886 34.5571 69.7886 35.0629 69.7043 35.5686 69.5357 35.9057 69.1143 36.3271 68.6929 36.6643 68.1029 36.7486 67.3443L36.7486 67.3443C36.4114 67.7657 35.8214 68.0186 35.2314 68.0186 34.0514 68.0186 33.2929 67.0914 33.2929 65.9957 33.2929 64.7314 34.22 63.6357 35.5686 63.6357 36.9171 63.6357 37.76 64.7314 37.76 66.4171 37.76 67.85 37.2543 68.8614 36.6643 69.5357 36.1586 70.0414 35.4843 70.2943 34.7257 70.3786 34.3886 70.4629 34.1357 70.4629 33.8829 70.4629L33.8829 69.7886ZM34.1357 65.9957C34.1357 66.8386 34.6414 67.4286 35.4 67.4286 35.99 67.4286 36.4957 67.1757 36.6643 66.7543 36.7486 66.67 36.7486 66.5857 36.7486 66.4171 36.7486 65.3214 36.3271 64.3943 35.4 64.3943 34.6414 64.3943 34.1357 65.0686 34.1357 65.9957Z" fill="#666666" transform="matrix(1 0 0 1.00146 15 145)"/><path d="M43.07 67.0071C43.07 69.2829 42.2271 70.4629 40.7943 70.4629 39.53 70.4629 38.6029 69.2829 38.6029 67.0914 38.6029 64.9 39.53 63.6357 40.8786 63.6357 42.3114 63.72 43.07 64.9 43.07 67.0071ZM39.53 67.0914C39.53 68.7771 40.0357 69.7886 40.8786 69.7886 41.8057 69.7886 42.2271 68.6929 42.2271 67.0914 42.2271 65.49 41.8057 64.3943 40.8786 64.3943 40.12 64.3943 39.53 65.3214 39.53 67.0914Z" fill="#666666" transform="matrix(1 0 0 1.00146 15 145)"/><path d="M33.2086 93.5571C33.2086 92.7143 33.7143 92.1243 34.4729 91.7871L34.4729 91.7871C33.7143 91.45 33.4614 90.86 33.4614 90.27 33.4614 89.2586 34.3043 88.5 35.4843 88.5 36.7486 88.5 37.4229 89.2586 37.4229 90.1014 37.4229 90.6914 37.17 91.2814 36.3271 91.6186L36.3271 91.6186C37.17 91.9557 37.6757 92.5457 37.6757 93.3043 37.6757 94.4843 36.6643 95.2429 35.4 95.2429 34.0514 95.3271 33.2086 94.5686 33.2086 93.5571ZM36.7486 93.5571C36.7486 92.7986 36.1586 92.3771 35.3157 92.1243 34.5571 92.3771 34.1357 92.8829 34.1357 93.4729 34.1357 94.1471 34.6414 94.7371 35.4843 94.7371 36.2429 94.7371 36.7486 94.2314 36.7486 93.5571ZM34.3043 90.27C34.3043 90.9443 34.81 91.2814 35.5686 91.45 36.1586 91.2814 36.58 90.86 36.58 90.27 36.58 89.7643 36.2429 89.1743 35.4843 89.1743 34.7257 89.1743 34.3043 89.68 34.3043 90.27Z" fill="#666666" transform="matrix(1 0 0 1.00146 15 145)"/><path d="M43.07 91.8714C43.07 94.1471 42.2271 95.3271 40.7943 95.3271 39.53 95.3271 38.6029 94.1471 38.6029 91.9557 38.6029 89.7643 39.53 88.5 40.8786 88.5 42.3114 88.5843 43.07 89.7643 43.07 91.8714ZM39.53 91.9557C39.53 93.6414 40.0357 94.6529 40.8786 94.6529 41.8057 94.6529 42.2271 93.5571 42.2271 91.9557 42.2271 90.3543 41.8057 89.2586 40.8786 89.2586 40.12 89.2586 39.53 90.1857 39.53 91.9557Z" fill="#666666" transform="matrix(1 0 0 1.00146 15 145)"/><path d="M37.5914 113.111 37.5914 113.701 34.7257 119.686 33.7986 119.686 36.6643 113.87 36.6643 113.87 33.4614 113.87 33.4614 113.111 37.5914 113.111Z" fill="#666666" transform="matrix(1 0 0 1.00146 15 145)"/><path d="M43.07 116.314C43.07 118.59 42.2271 119.77 40.7943 119.77 39.53 119.77 38.6029 118.59 38.6029 116.399 38.6029 114.207 39.53 112.943 40.8786 112.943 42.3114 113.027 43.07 114.207 43.07 116.314ZM39.53 116.399C39.53 118.084 40.0357 119.096 40.8786 119.096 41.8057 119.096 42.2271 118 42.2271 116.399 42.2271 114.797 41.8057 113.701 40.8786 113.701 40.12 113.701 39.53 114.629 39.53 116.399Z" fill="#666666" transform="matrix(1 0 0 1.00146 15 145)"/><path d="M37.0857 136.88C36.9171 136.88 36.6643 136.88 36.4114 136.88 34.9786 137.133 34.3043 138.144 34.1357 139.24L34.1357 139.24C34.4729 138.819 34.9786 138.481 35.7371 138.481 36.9171 138.481 37.76 139.324 37.76 140.589 37.76 141.769 36.9171 142.864 35.5686 142.864 34.1357 142.864 33.2086 141.769 33.2086 140.083 33.2086 138.819 33.7143 137.807 34.3043 137.133 34.81 136.627 35.5686 136.29 36.4114 136.121 36.6643 136.121 36.9171 136.037 37.0857 136.037L37.0857 136.88ZM36.8329 140.673C36.8329 139.746 36.3271 139.156 35.4843 139.156 34.9786 139.156 34.4729 139.493 34.22 139.999 34.1357 140.083 34.1357 140.251 34.1357 140.42 34.1357 141.516 34.6414 142.274 35.5686 142.274 36.2429 142.274 36.8329 141.684 36.8329 140.673Z" fill="#666666" transform="matrix(1 0 0 1.00146 15 145)"/><path d="M43.07 139.493C43.07 141.769 42.2271 142.949 40.7943 142.949 39.53 142.949 38.6029 141.769 38.6029 139.577 38.6029 137.386 39.53 136.121 40.8786 136.121 42.3114 136.206 43.07 137.386 43.07 139.493ZM39.53 139.577C39.53 141.263 40.0357 142.274 40.8786 142.274 41.8057 142.274 42.2271 141.179 42.2271 139.577 42.2271 137.976 41.8057 136.88 40.8786 136.88 40.12 136.88 39.53 137.807 39.53 139.577Z" fill="#666666" transform="matrix(1 0 0 1.00146 15 145)"/><path d="M37.2543 161.491 34.7257 161.491 34.4729 163.177C34.6414 163.177 34.7257 163.177 34.9786 163.177 35.4843 163.177 35.99 163.261 36.4114 163.514 36.9171 163.767 37.3386 164.357 37.3386 165.2 37.3386 166.464 36.3271 167.476 34.8943 167.476 34.1357 167.476 33.5457 167.307 33.2929 167.054L33.5457 166.38C33.7986 166.549 34.3886 166.717 34.9786 166.717 35.8214 166.717 36.4957 166.211 36.4957 165.284 36.4957 164.441 35.9057 163.851 34.6414 163.851 34.3043 163.851 33.9671 163.851 33.7143 163.936L34.1357 160.817 37.2543 160.817 37.2543 161.491Z" fill="#666666" transform="matrix(1 0 0 1.00146 15 145)"/><path d="M43.07 163.936C43.07 166.211 42.2271 167.391 40.7943 167.391 39.53 167.391 38.6029 166.211 38.6029 164.02 38.6029 161.829 39.53 160.564 40.8786 160.564 42.3114 160.649 43.07 161.829 43.07 163.936ZM39.53 164.02C39.53 165.706 40.0357 166.717 40.8786 166.717 41.8057 166.717 42.2271 165.621 42.2271 164.02 42.2271 162.419 41.8057 161.323 40.8786 161.323 40.12 161.323 39.53 162.25 39.53 164.02Z" fill="#666666" transform="matrix(1 0 0 1.00146 15 145)"/><path d="M36.0743 190.907 36.0743 189.137 33.04 189.137 33.04 188.547 35.99 184.333 36.9171 184.333 36.9171 188.379 37.8443 188.379 37.8443 189.053 36.9171 189.053 36.9171 190.823 36.0743 190.823ZM36.0743 188.463 36.0743 186.271C36.0743 185.934 36.0743 185.597 36.0743 185.26L36.0743 185.26C35.9057 185.681 35.7371 185.934 35.5686 186.271L33.9671 188.547 33.9671 188.547 36.0743 188.547Z" fill="#666666" transform="matrix(1 0 0 1.00146 15 145)"/><path d="M43.07 187.536C43.07 189.811 42.2271 190.991 40.7943 190.991 39.53 190.991 38.6029 189.811 38.6029 187.62 38.6029 185.429 39.53 184.164 40.8786 184.164 42.3114 184.249 43.07 185.429 43.07 187.536ZM39.53 187.62C39.53 189.306 40.0357 190.317 40.8786 190.317 41.8057 190.317 42.2271 189.221 42.2271 187.62 42.2271 186.019 41.8057 184.923 40.8786 184.923 40.12 184.923 39.53 185.85 39.53 187.62Z" fill="#666666" transform="matrix(1 0 0 1.00146 15 145)"/><path d="M33.5457 214.339C33.7986 214.507 34.3886 214.76 34.9786 214.76 36.1586 214.76 36.4957 214.001 36.4957 213.496 36.4957 212.569 35.6529 212.147 34.81 212.147L34.3043 212.147 34.3043 211.473 34.81 211.473C35.4843 211.473 36.2429 211.136 36.2429 210.377 36.2429 209.871 35.9057 209.366 35.0629 209.366 34.5571 209.366 34.0514 209.619 33.7143 209.787L33.4614 209.113C33.7986 208.86 34.4729 208.607 35.1471 208.607 36.4114 208.607 37.0014 209.366 37.0014 210.209 37.0014 210.883 36.58 211.473 35.8214 211.726L35.8214 211.726C36.6643 211.894 37.2543 212.484 37.2543 213.411 37.2543 214.423 36.4114 215.35 34.8943 215.35 34.1357 215.35 33.5457 215.097 33.2086 214.929L33.5457 214.339Z" fill="#666666" transform="matrix(1 0 0 1.00146 15 145)"/><path d="M43.07 211.979C43.07 214.254 42.2271 215.434 40.7943 215.434 39.53 215.434 38.6029 214.254 38.6029 212.063 38.6029 209.871 39.53 208.607 40.8786 208.607 42.3114 208.691 43.07 209.871 43.07 211.979ZM39.53 212.063C39.53 213.749 40.0357 214.76 40.8786 214.76 41.8057 214.76 42.2271 213.664 42.2271 212.063 42.2271 210.461 41.8057 209.366 40.8786 209.366 40.12 209.366 39.53 210.293 39.53 212.063Z" fill="#666666" transform="matrix(1 0 0 1.00146 15 145)"/><path d="M33.2929 239.793 33.2929 239.287 33.9671 238.613C35.6529 237.011 36.4114 236.169 36.4114 235.157 36.4114 234.483 36.0743 233.893 35.1471 233.893 34.5571 233.893 34.0514 234.23 33.7143 234.483L33.4614 233.893C33.8829 233.471 34.5571 233.219 35.3157 233.219 36.7486 233.219 37.3386 234.23 37.3386 235.157 37.3386 236.337 36.4957 237.349 35.0629 238.697L34.5571 239.203 34.5571 239.203 37.5071 239.203 37.5071 239.961 33.2929 239.961Z" fill="#666666" transform="matrix(1 0 0 1.00146 15 145)"/><path d="M43.07 236.421C43.07 238.697 42.2271 239.877 40.7943 239.877 39.53 239.877 38.6029 238.697 38.6029 236.506 38.6029 234.314 39.53 233.05 40.8786 233.05 42.3114 233.134 43.07 234.314 43.07 236.421ZM39.53 236.506C39.53 238.191 40.0357 239.203 40.8786 239.203 41.8057 239.203 42.2271 238.107 42.2271 236.506 42.2271 234.904 41.8057 233.809 40.8786 233.809 40.12 233.809 39.53 234.736 39.53 236.506Z" fill="#666666" transform="matrix(1 0 0 1.00146 15 145)"/><path d="M35.2314 258.504 35.2314 258.504 34.0514 259.094 33.8829 258.42 35.3157 257.661 36.0743 257.661 36.0743 264.236 35.2314 264.236 35.2314 258.504Z" fill="#666666" transform="matrix(1 0 0 1.00146 15 145)"/><path d="M43.07 260.864C43.07 263.14 42.2271 264.32 40.7943 264.32 39.53 264.32 38.6029 263.14 38.6029 260.949 38.6029 258.757 39.53 257.493 40.8786 257.493 42.3114 257.577 43.07 258.757 43.07 260.864ZM39.53 260.949C39.53 262.634 40.0357 263.646 40.8786 263.646 41.8057 263.646 42.2271 262.55 42.2271 260.949 42.2271 259.347 41.8057 258.251 40.8786 258.251 40.12 258.251 39.53 259.179 39.53 260.949Z" fill="#666666" transform="matrix(1 0 0 1.00146 15 145)"/><path d="M43.07 285.307C43.07 287.583 42.2271 288.763 40.7943 288.763 39.53 288.763 38.6029 287.583 38.6029 285.391 38.6029 283.2 39.53 281.936 40.8786 281.936 42.3114 282.02 43.07 283.2 43.07 285.307ZM39.53 285.391C39.53 287.077 40.0357 288.089 40.8786 288.089 41.8057 288.089 42.2271 286.993 42.2271 285.391 42.2271 283.79 41.8057 282.694 40.8786 282.694 40.12 282.694 39.53 283.621 39.53 285.391Z" fill="#666666" transform="matrix(1 0 0 1.00146 15 145)"/><path d="M83.2743 152.979 113.617 152.979 113.617 206.5 83.2743 206.5Z" stroke="#333333" stroke-width="1.68571" fill="#FFD9D9" transform="matrix(1 0 0 1.00146 15 145)"/><path d="M83.2743 101.143 113.027 101.143 113.027 153.147 83.2743 153.147Z" stroke="#333333" stroke-width="1.68571" fill="#FFA1A1" transform="matrix(1 0 0 1.00146 15 145)"/><path d="M98.4457 101.143 98.4457 68.0186" stroke="#333333" stroke-width="2.52857" fill="none" transform="matrix(1 0 0 1.00146 15 145)"/><path d="M83.2743 101.143 113.617 101.143 113.617 206.5 83.2743 206.5Z" stroke="#333333" stroke-width="2.52857" fill="none" transform="matrix(1 0 0 1.00146 15 145)"/><path d="M83.8643 153.147 113.111 153.147" stroke="#333333" stroke-width="2.52857" fill="none" transform="matrix(1 0 0 1.00146 15 145)"/><path d="M98.4457 206.5 98.4457 256.229" stroke="#333333" stroke-width="2.52857" fill="none" transform="matrix(1 0 0 1.00146 15 145)"/><path d="M82.01 67.6814 114.881 67.6814" stroke="#333333" stroke-width="2.52857" fill="none" transform="matrix(1 0 0 1.00146 15 145)"/><path d="M82.01 255.639 114.881 255.639" stroke="#333333" stroke-width="2.52857" fill="none" transform="matrix(1 0 0 1.00146 15 145)"/><path d="M151.293 21.0714 36.58 21.0714 36.58 31.1857" stroke="#1A1A1A" stroke-width="0.842857" fill="none" transform="matrix(1 0 0 1.00146 15 145)"/><path d="M101.817 279.829C101.817 281.691 100.308 283.2 98.4457 283.2 96.5837 283.2 95.0743 281.691 95.0743 279.829 95.0743 277.967 96.5837 276.457 98.4457 276.457 100.308 276.457 101.817 277.967 101.817 279.829Z" fill="#333333" transform="matrix(1 0 0 1.00146 15 145)"/><path d="M160.733 67.9343 157.867 67.9343 157.867 70.6314 161.07 70.6314 161.07 71.39 156.94 71.39 156.94 63.9729 160.901 63.9729 160.901 64.7314 157.867 64.7314 157.867 67.0914 160.733 67.0914 160.733 67.9343Z" fill="#1A1A1A" transform="matrix(1 0 0 1.00146 15 145)"/><path d="M163.009 66.08 163.767 67.26C163.936 67.5971 164.104 67.85 164.273 68.1029L164.273 68.1029C164.441 67.7657 164.61 67.5129 164.779 67.26L165.537 66.1643 166.549 66.1643 164.779 68.6929 166.633 71.39 165.537 71.39 164.779 70.21C164.61 69.8729 164.357 69.62 164.189 69.2829L164.189 69.2829C164.02 69.62 163.851 69.8729 163.599 70.21L162.84 71.39 161.829 71.39 163.683 68.6929 161.913 66.08 163.009 66.08Z" fill="#1A1A1A" transform="matrix(1 0 0 1.00146 15 145)"/><path d="M169.161 64.5629 169.161 66.08 170.51 66.08 170.51 66.8386 169.161 66.8386 169.161 69.7043C169.161 70.3786 169.33 70.7157 169.92 70.7157 170.173 70.7157 170.341 70.7157 170.51 70.6314L170.594 71.39C170.426 71.4743 170.089 71.5586 169.751 71.5586 169.33 71.5586 168.909 71.39 168.74 71.1371 168.487 70.8843 168.403 70.3786 168.403 69.7886L168.403 66.9229 167.56 66.9229 167.56 66.1643 168.403 66.1643 168.403 64.9 169.161 64.5629Z" fill="#1A1A1A" transform="matrix(1 0 0 1.00146 15 145)"/><path d="M171.943 67.6814C171.943 67.0914 171.943 66.5014 171.859 65.9957L172.701 65.9957 172.701 67.0071 172.786 67.0071C173.039 66.3329 173.629 65.8271 174.219 65.8271 174.303 65.8271 174.387 65.8271 174.471 65.8271L174.471 66.7543C174.387 66.7543 174.303 66.7543 174.134 66.7543 173.46 66.7543 172.954 67.26 172.87 68.0186 172.87 68.1871 172.786 68.2714 172.786 68.44L172.786 71.3057 171.943 71.3057 171.943 67.6814Z" fill="#1A1A1A" transform="matrix(1 0 0 1.00146 15 145)"/><path d="M176.241 68.8614C176.241 70.1257 177.084 70.7157 178.096 70.7157 178.77 70.7157 179.191 70.6314 179.529 70.4629L179.697 71.1371C179.36 71.3057 178.77 71.4743 177.927 71.4743 176.326 71.4743 175.314 70.3786 175.314 68.7771 175.314 67.1757 176.241 65.9114 177.843 65.9114 179.613 65.9114 180.034 67.4286 180.034 68.44 180.034 68.6086 180.034 68.7771 180.034 68.8614L176.241 68.8614ZM179.023 68.1871C179.023 67.5971 178.77 66.5857 177.674 66.5857 176.663 66.5857 176.241 67.5129 176.157 68.1871L179.023 68.1871Z" fill="#1A1A1A" transform="matrix(1 0 0 1.00146 15 145)"/><path d="M181.467 67.5129C181.467 67.0071 181.467 66.5014 181.383 66.08L182.226 66.08 182.31 66.9229 182.31 66.9229C182.647 66.4171 183.069 65.9114 183.996 65.9114 184.754 65.9114 185.26 66.3329 185.513 67.0071L185.513 67.0071C185.681 66.67 185.85 66.5014 186.103 66.3329 186.44 66.08 186.777 65.9957 187.283 65.9957 187.957 65.9957 189.053 66.4171 189.053 68.2714L189.053 71.39 188.126 71.39 188.126 68.3557C188.126 67.3443 187.789 66.7543 186.946 66.7543 186.356 66.7543 185.934 67.1757 185.766 67.5971 185.681 67.7657 185.681 67.9343 185.681 68.1029L185.681 71.39 184.754 71.39 184.754 68.1871C184.754 67.3443 184.417 66.7543 183.659 66.7543 183.069 66.7543 182.647 67.26 182.479 67.6814 182.394 67.85 182.394 68.0186 182.394 68.1871L182.394 71.39 181.467 71.39 181.467 67.5129Z" fill="#1A1A1A" transform="matrix(1 0 0 1.00146 15 145)"/><path d="M195.627 68.6929C195.627 70.6314 194.279 71.4743 193.014 71.4743 191.581 71.4743 190.486 70.4629 190.486 68.7771 190.486 67.0071 191.666 65.9957 193.099 65.9957 194.616 65.9114 195.627 67.0071 195.627 68.6929ZM191.413 68.6929C191.413 69.8729 192.087 70.7157 193.014 70.7157 193.941 70.7157 194.616 69.8729 194.616 68.6929 194.616 67.7657 194.194 66.67 193.014 66.67 191.919 66.67 191.413 67.6814 191.413 68.6929Z" fill="#1A1A1A" transform="matrix(1 0 0 1.00146 15 145)"/><path d="M199.673 70.21C200.094 70.4629 200.684 70.7157 201.359 70.7157 202.37 70.7157 202.876 70.21 202.876 69.4514 202.876 68.7771 202.454 68.3557 201.443 68.0186 200.263 67.5971 199.504 67.0071 199.504 65.9114 199.504 64.7314 200.431 63.8886 201.864 63.8886 202.623 63.8886 203.129 64.0571 203.466 64.2257L203.213 64.9843C202.96 64.8157 202.454 64.6471 201.78 64.6471 200.769 64.6471 200.347 65.2371 200.347 65.7429 200.347 66.4171 200.769 66.7543 201.78 67.1757 203.044 67.6814 203.634 68.2714 203.634 69.3671 203.634 70.5471 202.791 71.4743 201.021 71.4743 200.347 71.4743 199.504 71.3057 199.167 70.9686L199.673 70.21Z" fill="#1A1A1A" transform="matrix(1 0 0 1.00146 15 145)"/><path d="M209.871 69.9571C209.871 70.5471 209.871 70.9686 209.956 71.39L209.113 71.39 209.029 70.5471 209.029 70.5471C208.776 70.9686 208.186 71.5586 207.259 71.5586 206.416 71.5586 205.404 71.1371 205.404 69.1986L205.404 66.08 206.331 66.08 206.331 69.03C206.331 70.0414 206.669 70.7157 207.511 70.7157 208.186 70.7157 208.607 70.2943 208.776 69.8729 208.86 69.7043 208.86 69.5357 208.86 69.3671L208.86 66.08 209.787 66.08 209.787 69.9571Z" fill="#1A1A1A" transform="matrix(1 0 0 1.00146 15 145)"/><path d="M211.726 67.7657C211.726 67.0914 211.726 66.5014 211.641 65.9957L212.484 65.9957 212.569 66.9229 212.569 66.9229C212.99 66.2486 213.58 65.9114 214.423 65.9114 215.687 65.9114 216.699 67.0071 216.699 68.6086 216.699 70.5471 215.519 71.4743 214.254 71.4743 213.58 71.4743 212.906 71.1371 212.653 70.6314L212.653 70.6314 212.653 73.4971 211.726 73.4971 211.726 67.7657ZM212.653 69.1986C212.653 69.3671 212.653 69.4514 212.737 69.62 212.906 70.2943 213.496 70.7157 214.17 70.7157 215.181 70.7157 215.771 69.8729 215.771 68.6929 215.771 67.5971 215.181 66.7543 214.17 66.7543 213.496 66.7543 212.906 67.26 212.737 67.9343 212.737 68.0186 212.653 68.1871 212.653 68.3557L212.653 69.1986Z" fill="#1A1A1A" transform="matrix(1 0 0 1.00146 15 145)"/><path d="M218.721 68.8614C218.721 70.1257 219.564 70.7157 220.576 70.7157 221.25 70.7157 221.671 70.6314 222.009 70.4629L222.177 71.1371C221.84 71.3057 221.25 71.4743 220.407 71.4743 218.806 71.4743 217.794 70.3786 217.794 68.7771 217.794 67.1757 218.721 65.9114 220.323 65.9114 222.093 65.9114 222.514 67.4286 222.514 68.44 222.514 68.6086 222.514 68.7771 222.514 68.8614L218.721 68.8614ZM221.587 68.1871C221.587 67.5971 221.334 66.5857 220.239 66.5857 219.227 66.5857 218.806 67.5129 218.721 68.1871L221.587 68.1871Z" fill="#1A1A1A" transform="matrix(1 0 0 1.00146 15 145)"/><path d="M224.031 67.6814C224.031 67.0914 224.031 66.5014 223.947 65.9957L224.79 65.9957 224.79 67.0071 224.874 67.0071C225.127 66.3329 225.717 65.8271 226.307 65.8271 226.391 65.8271 226.476 65.8271 226.56 65.8271L226.56 66.7543C226.476 66.7543 226.391 66.7543 226.223 66.7543 225.549 66.7543 225.043 67.26 224.959 68.0186 224.959 68.1871 224.874 68.2714 224.874 68.44L224.874 71.3057 223.947 71.3057 223.947 67.6814Z" fill="#1A1A1A" transform="matrix(1 0 0 1.00146 15 145)"/><path d="M229.004 64.5629C229.004 64.9 228.751 65.1529 228.414 65.1529 228.077 65.1529 227.824 64.9 227.824 64.5629 227.824 64.2257 228.077 63.9729 228.414 63.9729 228.751 63.9729 229.004 64.2257 229.004 64.5629ZM227.909 71.39 227.909 66.08 228.836 66.08 228.836 71.39 227.909 71.39Z" fill="#1A1A1A" transform="matrix(1 0 0 1.00146 15 145)"/><path d="M235.494 68.6929C235.494 70.6314 234.146 71.4743 232.881 71.4743 231.449 71.4743 230.353 70.4629 230.353 68.7771 230.353 67.0071 231.533 65.9957 232.966 65.9957 234.483 65.9114 235.494 67.0071 235.494 68.6929ZM231.28 68.6929C231.28 69.8729 231.954 70.7157 232.881 70.7157 233.809 70.7157 234.483 69.8729 234.483 68.6929 234.483 67.7657 234.061 66.67 232.881 66.67 231.786 66.67 231.28 67.6814 231.28 68.6929Z" fill="#1A1A1A" transform="matrix(1 0 0 1.00146 15 145)"/><path d="M237.011 67.6814C237.011 67.0914 237.011 66.5014 236.927 65.9957L237.77 65.9957 237.77 67.0071 237.854 67.0071C238.107 66.3329 238.697 65.8271 239.287 65.8271 239.371 65.8271 239.456 65.8271 239.54 65.8271L239.54 66.7543C239.456 66.7543 239.371 66.7543 239.203 66.7543 238.529 66.7543 238.023 67.26 237.939 68.0186 237.939 68.1871 237.854 68.2714 237.854 68.44L237.854 71.3057 236.927 71.3057 236.927 67.6814Z" fill="#1A1A1A" transform="matrix(1 0 0 1.00146 15 145)"/><path d="M156.94 227.487C157.361 227.403 158.036 227.319 158.71 227.319 159.637 227.319 160.311 227.487 160.733 227.824 161.154 228.077 161.323 228.583 161.323 229.089 161.323 229.763 160.817 230.437 160.059 230.69L160.059 230.69C160.733 230.859 161.576 231.449 161.576 232.544 161.576 233.219 161.323 233.64 160.986 234.061 160.48 234.567 159.637 234.736 158.457 234.736 157.783 234.736 157.277 234.651 156.94 234.651L156.94 227.487ZM157.867 230.521 158.71 230.521C159.721 230.521 160.311 230.016 160.311 229.257 160.311 228.414 159.637 228.077 158.71 228.077 158.289 228.077 158.036 228.077 157.867 228.161L157.867 230.521ZM157.867 234.061C158.036 234.061 158.289 234.146 158.626 234.146 159.637 234.146 160.48 233.809 160.48 232.713 160.48 231.701 159.637 231.28 158.541 231.28L157.783 231.28 157.783 234.061Z" fill="#1A1A1A" transform="matrix(1 0 0 1.00146 15 145)"/><path d="M164.189 227.993C164.189 228.33 163.936 228.583 163.599 228.583 163.261 228.583 163.009 228.33 163.009 227.993 163.009 227.656 163.261 227.403 163.599 227.403 163.936 227.403 164.189 227.656 164.189 227.993ZM163.093 234.82 163.093 229.51 164.02 229.51 164.02 234.82 163.093 234.82Z" fill="#1A1A1A" transform="matrix(1 0 0 1.00146 15 145)"/><path d="M170.51 229.51C170.51 229.931 170.426 230.353 170.426 230.943L170.426 234.061C170.426 235.241 170.173 236 169.667 236.506 169.161 237.011 168.403 237.18 167.729 237.18 167.054 237.18 166.38 237.011 165.959 236.759L166.211 236C166.549 236.253 167.139 236.421 167.729 236.421 168.74 236.421 169.414 235.916 169.414 234.567L169.414 233.977 169.414 233.977C169.077 234.483 168.571 234.904 167.729 234.904 166.38 234.904 165.453 233.809 165.453 232.291 165.453 230.521 166.633 229.51 167.813 229.51 168.74 229.51 169.246 230.016 169.499 230.437L169.499 230.437 169.583 229.679 170.51 229.679ZM169.499 231.617C169.499 231.449 169.499 231.28 169.414 231.196 169.246 230.606 168.74 230.184 168.066 230.184 167.139 230.184 166.464 230.943 166.464 232.207 166.464 233.219 166.97 234.146 168.066 234.146 168.656 234.146 169.161 233.809 169.414 233.134 169.499 232.966 169.499 232.797 169.499 232.629L169.499 231.617Z" fill="#1A1A1A" transform="matrix(1 0 0 1.00146 15 145)"/><path d="M177.084 232.123C177.084 234.061 175.736 234.904 174.471 234.904 173.039 234.904 171.943 233.893 171.943 232.207 171.943 230.437 173.123 229.426 174.556 229.426 176.073 229.341 177.084 230.521 177.084 232.123ZM172.87 232.123C172.87 233.303 173.544 234.146 174.471 234.146 175.399 234.146 176.073 233.303 176.073 232.123 176.073 231.196 175.651 230.1 174.471 230.1 173.376 230.1 172.87 231.196 172.87 232.123Z" fill="#1A1A1A" transform="matrix(1 0 0 1.00146 15 145)"/><path d="M179.781 227.993 179.781 229.51 181.13 229.51 181.13 230.269 179.781 230.269 179.781 233.134C179.781 233.809 179.95 234.146 180.54 234.146 180.793 234.146 180.961 234.146 181.13 234.061L181.214 234.82C181.046 234.904 180.709 234.989 180.371 234.989 179.95 234.989 179.529 234.82 179.36 234.567 179.107 234.314 179.023 233.809 179.023 233.219L179.023 230.353 178.18 230.353 178.18 229.594 179.023 229.594 179.023 228.33 179.781 227.993Z" fill="#1A1A1A" transform="matrix(1 0 0 1.00146 15 145)"/><path d="M182.984 232.291C182.984 233.556 183.827 234.146 184.839 234.146 185.513 234.146 185.934 234.061 186.271 233.893L186.44 234.567C186.103 234.736 185.513 234.904 184.67 234.904 183.069 234.904 182.057 233.809 182.057 232.207 182.057 230.606 182.984 229.341 184.586 229.341 186.356 229.341 186.777 230.859 186.777 231.87 186.777 232.039 186.777 232.207 186.777 232.291L182.984 232.291ZM185.766 231.617C185.766 231.027 185.513 230.016 184.417 230.016 183.406 230.016 182.984 230.943 182.9 231.617L185.766 231.617Z" fill="#1A1A1A" transform="matrix(1 0 0 1.00146 15 145)"/><path d="M162.081 104.093C161.744 104.261 161.07 104.43 160.143 104.43 158.036 104.43 156.519 103.081 156.519 100.721 156.519 98.4457 158.12 96.8443 160.396 96.8443 161.323 96.8443 161.913 97.0129 162.166 97.1814L161.913 97.94C161.576 97.7714 161.07 97.6029 160.396 97.6029 158.626 97.6029 157.53 98.6986 157.53 100.637 157.53 102.407 158.541 103.587 160.396 103.587 160.986 103.587 161.576 103.503 161.913 103.25L162.081 104.093Z" fill="#1A1A1A" transform="matrix(1 0 0 1.00146 15 145)"/><path d="M167.813 102.913C167.813 103.503 167.813 103.924 167.897 104.346L167.054 104.346 166.97 103.503 166.97 103.503C166.717 103.924 166.127 104.514 165.2 104.514 164.357 104.514 163.346 104.093 163.346 102.154L163.346 99.0357 164.273 99.0357 164.273 101.986C164.273 102.997 164.61 103.671 165.453 103.671 166.127 103.671 166.549 103.25 166.717 102.829 166.801 102.66 166.801 102.491 166.801 102.323L166.801 99.0357 167.729 99.0357 167.729 102.913Z" fill="#1A1A1A" transform="matrix(1 0 0 1.00146 15 145)"/><path d="M172.617 104.346 172.533 103.671 172.533 103.671C172.196 104.093 171.69 104.43 170.931 104.43 169.836 104.43 169.33 103.671 169.33 102.913 169.33 101.649 170.51 100.89 172.533 100.974L172.533 100.89C172.533 100.469 172.449 99.6257 171.353 99.6257 170.847 99.6257 170.341 99.7943 170.004 100.047L169.751 99.3729C170.173 99.12 170.847 98.8671 171.521 98.8671 173.123 98.8671 173.544 99.9629 173.544 101.059L173.544 103.081C173.544 103.503 173.544 104.009 173.629 104.346L172.617 104.346ZM172.449 101.649C171.437 101.649 170.173 101.817 170.173 102.829 170.173 103.419 170.594 103.756 171.1 103.756 171.774 103.756 172.196 103.334 172.364 102.829 172.364 102.744 172.449 102.66 172.449 102.491L172.449 101.649Z" fill="#1A1A1A" transform="matrix(1 0 0 1.00146 15 145)"/><path d="M175.23 100.721C175.23 100.131 175.23 99.5414 175.146 99.0357L175.989 99.0357 175.989 100.047 176.073 100.047C176.326 99.3729 176.916 98.8671 177.506 98.8671 177.59 98.8671 177.674 98.8671 177.759 98.8671L177.759 99.7943C177.674 99.7943 177.59 99.7943 177.421 99.7943 176.747 99.7943 176.241 100.3 176.157 101.059 176.157 101.227 176.073 101.311 176.073 101.48L176.073 104.346 175.146 104.346 175.146 100.721Z" fill="#1A1A1A" transform="matrix(1 0 0 1.00146 15 145)"/><path d="M180.54 97.5186 180.54 99.0357 181.889 99.0357 181.889 99.7943 180.54 99.7943 180.54 102.66C180.54 103.334 180.709 103.671 181.299 103.671 181.551 103.671 181.72 103.671 181.889 103.587L181.973 104.346C181.804 104.43 181.467 104.514 181.13 104.514 180.709 104.514 180.287 104.346 180.119 104.093 179.866 103.84 179.781 103.334 179.781 102.744L179.781 99.8786 178.939 99.8786 178.939 99.12 179.781 99.12 179.781 97.7714 180.54 97.5186Z" fill="#1A1A1A" transform="matrix(1 0 0 1.00146 15 145)"/><path d="M184.333 97.6029C184.333 97.94 184.08 98.1929 183.743 98.1929 183.406 98.1929 183.153 97.94 183.153 97.6029 183.153 97.2657 183.406 97.0129 183.743 97.0129 184.08 97.0129 184.333 97.2657 184.333 97.6029ZM183.237 104.346 183.237 99.0357 184.164 99.0357 184.164 104.346 183.237 104.346Z" fill="#1A1A1A" transform="matrix(1 0 0 1.00146 15 145)"/><path d="M186.103 96.5914 187.03 96.5914 187.03 104.346 186.103 104.346 186.103 96.5914Z" fill="#1A1A1A" transform="matrix(1 0 0 1.00146 15 145)"/><path d="M191.413 103.25C191.834 103.503 192.424 103.756 193.099 103.756 194.11 103.756 194.616 103.25 194.616 102.491 194.616 101.817 194.194 101.396 193.183 101.059 192.003 100.637 191.244 100.047 191.244 98.9514 191.244 97.7714 192.171 96.9286 193.604 96.9286 194.363 96.9286 194.869 97.0971 195.206 97.2657L194.953 98.0243C194.7 97.8557 194.194 97.6871 193.52 97.6871 192.509 97.6871 192.087 98.2771 192.087 98.7829 192.087 99.4571 192.509 99.7943 193.52 100.216 194.784 100.721 195.374 101.311 195.374 102.407 195.374 103.587 194.531 104.514 192.761 104.514 192.087 104.514 191.244 104.346 190.907 104.009L191.413 103.25Z" fill="#1A1A1A" transform="matrix(1 0 0 1.00146 15 145)"/><path d="M201.696 102.913C201.696 103.503 201.696 103.924 201.78 104.346L200.937 104.346 200.853 103.503 200.853 103.503C200.6 103.924 200.01 104.514 199.083 104.514 198.24 104.514 197.229 104.093 197.229 102.154L197.229 99.0357 198.156 99.0357 198.156 101.986C198.156 102.997 198.493 103.671 199.336 103.671 200.01 103.671 200.431 103.25 200.6 102.829 200.684 102.66 200.684 102.491 200.684 102.323L200.684 99.0357 201.611 99.0357 201.611 102.913Z" fill="#1A1A1A" transform="matrix(1 0 0 1.00146 15 145)"/><path d="M203.55 100.806C203.55 100.131 203.55 99.5414 203.466 99.0357L204.309 99.0357 204.393 99.9629 204.393 99.9629C204.814 99.2886 205.404 98.9514 206.247 98.9514 207.511 98.9514 208.523 100.047 208.523 101.649 208.523 103.587 207.343 104.514 206.079 104.514 205.404 104.514 204.73 104.177 204.477 103.671L204.477 103.671 204.477 106.537 203.55 106.537 203.55 100.806ZM204.477 102.239C204.477 102.407 204.477 102.491 204.561 102.66 204.73 103.334 205.32 103.756 205.994 103.756 207.006 103.756 207.596 102.913 207.596 101.733 207.596 100.637 207.006 99.7943 205.994 99.7943 205.32 99.7943 204.73 100.3 204.561 100.974 204.561 101.059 204.477 101.227 204.477 101.396L204.477 102.239Z" fill="#1A1A1A" transform="matrix(1 0 0 1.00146 15 145)"/><path d="M210.546 101.901C210.546 103.166 211.389 103.756 212.4 103.756 213.074 103.756 213.496 103.671 213.833 103.503L214.001 104.177C213.664 104.346 213.074 104.514 212.231 104.514 210.63 104.514 209.619 103.419 209.619 101.817 209.619 100.216 210.546 98.9514 212.147 98.9514 213.917 98.9514 214.339 100.469 214.339 101.48 214.339 101.649 214.339 101.817 214.339 101.901L210.546 101.901ZM213.411 101.227C213.411 100.637 213.159 99.6257 212.063 99.6257 211.051 99.6257 210.63 100.553 210.546 101.227L213.411 101.227Z" fill="#1A1A1A" transform="matrix(1 0 0 1.00146 15 145)"/><path d="M215.771 100.721C215.771 100.131 215.771 99.5414 215.687 99.0357L216.53 99.0357 216.53 100.047 216.614 100.047C216.867 99.3729 217.457 98.8671 218.047 98.8671 218.131 98.8671 218.216 98.8671 218.3 98.8671L218.3 99.7943C218.216 99.7943 218.131 99.7943 217.963 99.7943 217.289 99.7943 216.783 100.3 216.699 101.059 216.699 101.227 216.614 101.311 216.614 101.48L216.614 104.346 215.771 104.346 215.771 100.721Z" fill="#1A1A1A" transform="matrix(1 0 0 1.00146 15 145)"/><path d="M220.744 97.6029C220.744 97.94 220.491 98.1929 220.154 98.1929 219.817 98.1929 219.564 97.94 219.564 97.6029 219.564 97.2657 219.817 97.0129 220.154 97.0129 220.576 97.0129 220.744 97.2657 220.744 97.6029ZM219.733 104.346 219.733 99.0357 220.66 99.0357 220.66 104.346 219.733 104.346Z" fill="#1A1A1A" transform="matrix(1 0 0 1.00146 15 145)"/><path d="M227.319 101.649C227.319 103.587 225.97 104.43 224.706 104.43 223.273 104.43 222.177 103.419 222.177 101.733 222.177 99.9629 223.357 98.9514 224.79 98.9514 226.307 98.9514 227.319 100.047 227.319 101.649ZM223.104 101.733C223.104 102.913 223.779 103.756 224.706 103.756 225.633 103.756 226.307 102.913 226.307 101.733 226.307 100.806 225.886 99.71 224.706 99.71 223.61 99.71 223.104 100.721 223.104 101.733Z" fill="#1A1A1A" transform="matrix(1 0 0 1.00146 15 145)"/><path d="M228.836 100.721C228.836 100.131 228.836 99.5414 228.751 99.0357L229.594 99.0357 229.594 100.047 229.679 100.047C229.931 99.3729 230.521 98.8671 231.111 98.8671 231.196 98.8671 231.28 98.8671 231.364 98.8671L231.364 99.7943C231.28 99.7943 231.196 99.7943 231.027 99.7943 230.353 99.7943 229.847 100.3 229.763 101.059 229.763 101.227 229.679 101.311 229.679 101.48L229.679 104.346 228.751 104.346 228.751 100.721Z" fill="#1A1A1A" transform="matrix(1 0 0 1.00146 15 145)"/><path d="M163.093 153.821C163.009 152.81 163.009 151.546 163.009 150.619L163.009 150.619C162.756 151.461 162.419 152.389 162.081 153.4L160.817 157.024 160.059 157.024 158.879 153.484C158.541 152.473 158.204 151.461 158.036 150.619L158.036 150.619C158.036 151.546 157.951 152.81 157.867 153.906L157.699 157.109 156.771 157.109 157.277 149.691 158.457 149.691 159.721 153.231C160.059 154.159 160.311 154.917 160.48 155.76L160.48 155.76C160.649 155.001 160.901 154.243 161.239 153.231L162.587 149.691 163.767 149.691 164.189 157.109 163.261 157.109 163.093 153.821Z" fill="#1A1A1A" transform="matrix(1 0 0 1.00146 15 145)"/><path d="M166.549 154.58C166.549 155.844 167.391 156.434 168.403 156.434 169.077 156.434 169.499 156.35 169.836 156.181L170.004 156.856C169.667 157.024 169.077 157.193 168.234 157.193 166.633 157.193 165.621 156.097 165.621 154.496 165.621 152.894 166.549 151.63 168.15 151.63 169.92 151.63 170.341 153.147 170.341 154.159 170.341 154.327 170.341 154.496 170.341 154.58L166.549 154.58ZM169.414 153.906C169.414 153.316 169.161 152.304 168.066 152.304 167.054 152.304 166.633 153.231 166.549 153.906L169.414 153.906Z" fill="#1A1A1A" transform="matrix(1 0 0 1.00146 15 145)"/><path d="M176.326 149.27 176.326 155.676C176.326 156.181 176.326 156.687 176.41 157.024L175.567 157.024 175.483 156.097 175.483 156.097C175.146 156.687 174.556 157.109 173.713 157.109 172.449 157.109 171.437 156.013 171.437 154.411 171.437 152.641 172.533 151.546 173.797 151.546 174.64 151.546 175.146 151.967 175.399 152.389L175.399 152.389 175.399 149.186 176.326 149.186ZM175.399 153.906C175.399 153.821 175.399 153.653 175.314 153.484 175.146 152.894 174.64 152.389 173.881 152.389 172.87 152.389 172.28 153.231 172.28 154.411 172.28 155.507 172.786 156.35 173.881 156.35 174.556 156.35 175.146 155.929 175.314 155.17 175.314 155.001 175.399 154.917 175.399 154.749L175.399 153.906Z" fill="#1A1A1A" transform="matrix(1 0 0 1.00146 15 145)"/><path d="M179.276 150.281C179.276 150.619 179.023 150.871 178.686 150.871 178.349 150.871 178.096 150.619 178.096 150.281 178.096 149.944 178.349 149.691 178.686 149.691 179.107 149.691 179.276 149.944 179.276 150.281ZM178.264 157.024 178.264 151.714 179.191 151.714 179.191 157.024 178.264 157.024Z" fill="#1A1A1A" transform="matrix(1 0 0 1.00146 15 145)"/><path d="M183.996 157.024 183.911 156.35 183.911 156.35C183.574 156.771 183.069 157.109 182.31 157.109 181.214 157.109 180.709 156.35 180.709 155.591 180.709 154.327 181.889 153.569 183.911 153.653L183.911 153.569C183.911 153.147 183.827 152.304 182.731 152.304 182.226 152.304 181.72 152.473 181.383 152.726L181.13 152.051C181.551 151.799 182.226 151.546 182.9 151.546 184.501 151.546 184.923 152.641 184.923 153.737L184.923 155.76C184.923 156.181 184.923 156.687 185.007 157.024L183.996 157.024ZM183.827 154.327C182.816 154.327 181.551 154.496 181.551 155.507 181.551 156.097 181.973 156.434 182.479 156.434 183.153 156.434 183.574 156.013 183.743 155.507 183.743 155.423 183.827 155.339 183.827 155.17L183.827 154.327Z" fill="#1A1A1A" transform="matrix(1 0 0 1.00146 15 145)"/><path d="M186.609 153.147C186.609 152.641 186.609 152.136 186.524 151.714L187.367 151.714 187.451 152.557 187.451 152.557C187.704 152.051 188.294 151.546 189.221 151.546 189.98 151.546 191.076 151.967 191.076 153.821L191.076 157.024 190.149 157.024 190.149 153.99C190.149 153.147 189.811 152.389 188.884 152.389 188.21 152.389 187.789 152.81 187.62 153.4 187.536 153.484 187.536 153.653 187.536 153.821L187.536 157.024 186.609 157.024 186.609 153.147Z" fill="#1A1A1A" transform="matrix(1 0 0 1.00146 15 145)"/><path d="M195.88 157.024 195.796 156.35 195.796 156.35C195.459 156.771 194.953 157.109 194.194 157.109 193.099 157.109 192.593 156.35 192.593 155.591 192.593 154.327 193.773 153.569 195.796 153.653L195.796 153.569C195.796 153.147 195.711 152.304 194.616 152.304 194.11 152.304 193.604 152.473 193.267 152.726L193.014 152.051C193.436 151.799 194.11 151.546 194.784 151.546 196.386 151.546 196.807 152.641 196.807 153.737L196.807 155.76C196.807 156.181 196.807 156.687 196.891 157.024L195.88 157.024ZM195.796 154.327C194.784 154.327 193.52 154.496 193.52 155.507 193.52 156.097 193.941 156.434 194.447 156.434 195.121 156.434 195.543 156.013 195.711 155.507 195.711 155.423 195.796 155.339 195.796 155.17L195.796 154.327Z" fill="#1A1A1A" transform="matrix(1 0 0 1.00146 15 145)"/><path d="M162.081 210.461C161.744 210.63 161.07 210.799 160.143 210.799 158.036 210.799 156.519 209.45 156.519 207.09 156.519 204.814 158.12 203.213 160.396 203.213 161.323 203.213 161.913 203.381 162.166 203.55L161.913 204.309C161.576 204.14 161.07 203.971 160.396 203.971 158.626 203.971 157.53 205.067 157.53 207.006 157.53 208.776 158.541 209.956 160.396 209.956 160.986 209.956 161.576 209.871 161.913 209.619L162.081 210.461Z" fill="#1A1A1A" transform="matrix(1 0 0 1.00146 15 145)"/><path d="M167.813 209.281C167.813 209.787 167.813 210.293 167.897 210.714L167.054 210.714 166.97 209.871 166.97 209.871C166.717 210.293 166.127 210.883 165.2 210.883 164.357 210.883 163.346 210.461 163.346 208.523L163.346 205.404 164.273 205.404 164.273 208.354C164.273 209.366 164.61 210.04 165.453 210.04 166.127 210.04 166.549 209.619 166.717 209.197 166.801 209.029 166.801 208.86 166.801 208.691L166.801 205.404 167.729 205.404 167.729 209.281Z" fill="#1A1A1A" transform="matrix(1 0 0 1.00146 15 145)"/><path d="M172.617 210.714 172.533 210.04 172.533 210.04C172.196 210.461 171.69 210.799 170.931 210.799 169.836 210.799 169.33 210.04 169.33 209.281 169.33 208.017 170.51 207.259 172.533 207.343L172.533 207.259C172.533 206.837 172.449 205.994 171.353 205.994 170.847 205.994 170.341 206.163 170.004 206.416L169.751 205.741C170.173 205.489 170.847 205.236 171.521 205.236 173.123 205.236 173.544 206.331 173.544 207.427L173.544 209.45C173.544 209.871 173.544 210.377 173.629 210.714L172.617 210.714ZM172.449 208.017C171.437 208.017 170.173 208.186 170.173 209.197 170.173 209.787 170.594 210.124 171.1 210.124 171.774 210.124 172.196 209.703 172.364 209.197 172.364 209.113 172.449 209.029 172.449 208.86L172.449 208.017Z" fill="#1A1A1A" transform="matrix(1 0 0 1.00146 15 145)"/><path d="M175.23 207.09C175.23 206.5 175.23 205.91 175.146 205.404L175.989 205.404 175.989 206.416 176.073 206.416C176.326 205.741 176.916 205.236 177.506 205.236 177.59 205.236 177.674 205.236 177.759 205.236L177.759 206.163C177.674 206.163 177.59 206.163 177.421 206.163 176.747 206.163 176.241 206.669 176.157 207.427 176.157 207.596 176.073 207.68 176.073 207.849L176.073 210.714 175.146 210.714 175.146 207.09Z" fill="#1A1A1A" transform="matrix(1 0 0 1.00146 15 145)"/><path d="M180.54 203.887 180.54 205.404 181.889 205.404 181.889 206.163 180.54 206.163 180.54 209.029C180.54 209.703 180.709 210.04 181.299 210.04 181.551 210.04 181.72 210.04 181.889 209.956L181.973 210.714C181.804 210.799 181.467 210.883 181.13 210.883 180.709 210.883 180.287 210.714 180.119 210.461 179.866 210.209 179.781 209.703 179.781 209.113L179.781 206.247 178.939 206.247 178.939 205.489 179.781 205.489 179.781 204.224 180.54 203.887Z" fill="#1A1A1A" transform="matrix(1 0 0 1.00146 15 145)"/><path d="M184.333 203.887C184.333 204.224 184.08 204.477 183.743 204.477 183.406 204.477 183.153 204.224 183.153 203.887 183.153 203.55 183.406 203.297 183.743 203.297 184.08 203.297 184.333 203.55 184.333 203.887ZM183.237 210.714 183.237 205.404 184.164 205.404 184.164 210.714 183.237 210.714Z" fill="#1A1A1A" transform="matrix(1 0 0 1.00146 15 145)"/><path d="M186.103 202.96 187.03 202.96 187.03 210.714 186.103 210.714 186.103 202.96Z" fill="#1A1A1A" transform="matrix(1 0 0 1.00146 15 145)"/><path d="M192.509 203.297 192.509 210.714 191.581 210.714 191.581 203.297 192.509 203.297Z" fill="#1A1A1A" transform="matrix(1 0 0 1.00146 15 145)"/><path d="M194.531 206.837C194.531 206.247 194.531 205.826 194.447 205.404L195.29 205.404 195.374 206.247 195.374 206.247C195.627 205.741 196.217 205.236 197.144 205.236 197.903 205.236 198.999 205.657 198.999 207.511L198.999 210.714 198.071 210.714 198.071 207.68C198.071 206.837 197.734 206.079 196.807 206.079 196.133 206.079 195.711 206.5 195.543 207.09 195.459 207.174 195.459 207.343 195.459 207.511L195.459 210.714 194.531 210.714 194.531 206.837Z" fill="#1A1A1A" transform="matrix(1 0 0 1.00146 15 145)"/><path d="M201.021 210.714 201.021 206.163 200.263 206.163 200.263 205.404 201.021 205.404 201.021 205.151C201.021 204.393 201.19 203.719 201.611 203.297 201.949 202.96 202.454 202.791 202.876 202.791 203.213 202.791 203.55 202.876 203.719 202.96L203.55 203.719C203.381 203.634 203.213 203.634 202.96 203.634 202.117 203.634 201.949 204.393 201.949 205.151L201.949 205.404 203.213 205.404 203.213 206.163 201.949 206.163 201.949 210.714 201.021 210.714Z" fill="#1A1A1A" transform="matrix(1 0 0 1.00146 15 145)"/><path d="M204.73 208.27C204.73 209.534 205.573 210.124 206.584 210.124 207.259 210.124 207.68 210.04 208.017 209.871L208.186 210.546C207.849 210.714 207.259 210.883 206.416 210.883 204.814 210.883 203.803 209.787 203.803 208.186 203.803 206.584 204.73 205.32 206.331 205.32 208.101 205.32 208.523 206.837 208.523 207.849 208.523 208.017 208.523 208.186 208.523 208.27L204.73 208.27ZM207.596 207.511C207.596 206.921 207.343 205.91 206.247 205.91 205.236 205.91 204.814 206.837 204.73 207.511L207.596 207.511Z" fill="#1A1A1A" transform="matrix(1 0 0 1.00146 15 145)"/><path d="M210.04 207.09C210.04 206.5 210.04 205.91 209.956 205.404L210.799 205.404 210.799 206.416 210.883 206.416C211.136 205.741 211.726 205.236 212.316 205.236 212.4 205.236 212.484 205.236 212.569 205.236L212.569 206.163C212.484 206.163 212.4 206.163 212.231 206.163 211.557 206.163 211.051 206.669 210.967 207.427 210.967 207.596 210.883 207.68 210.883 207.849L210.883 210.714 209.956 210.714 209.956 207.09Z" fill="#1A1A1A" transform="matrix(1 0 0 1.00146 15 145)"/><path d="M215.013 203.887C215.013 204.224 214.76 204.477 214.423 204.477 214.086 204.477 213.833 204.224 213.833 203.887 213.833 203.55 214.086 203.297 214.423 203.297 214.76 203.297 215.013 203.55 215.013 203.887ZM213.917 210.714 213.917 205.404 214.844 205.404 214.844 210.714 213.917 210.714Z" fill="#1A1A1A" transform="matrix(1 0 0 1.00146 15 145)"/><path d="M221.503 208.017C221.503 209.956 220.154 210.799 218.89 210.799 217.457 210.799 216.361 209.787 216.361 208.101 216.361 206.331 217.541 205.32 218.974 205.32 220.491 205.32 221.503 206.416 221.503 208.017ZM217.289 208.101C217.289 209.281 217.963 210.124 218.89 210.124 219.817 210.124 220.491 209.281 220.491 208.101 220.491 207.174 220.07 206.079 218.89 206.079 217.794 205.994 217.289 207.09 217.289 208.101Z" fill="#1A1A1A" transform="matrix(1 0 0 1.00146 15 145)"/><path d="M223.02 207.09C223.02 206.5 223.02 205.91 222.936 205.404L223.779 205.404 223.779 206.416 223.863 206.416C224.116 205.741 224.706 205.236 225.296 205.236 225.38 205.236 225.464 205.236 225.549 205.236L225.549 206.163C225.464 206.163 225.38 206.163 225.211 206.163 224.537 206.163 224.031 206.669 223.947 207.427 223.947 207.596 223.863 207.68 223.863 207.849L223.863 210.714 222.936 210.714 222.936 207.09Z" fill="#1A1A1A" transform="matrix(1 0 0 1.00146 15 145)"/><path d="M160.733 256.397 157.867 256.397 157.867 259.094 161.07 259.094 161.07 259.853 156.94 259.853 156.94 252.436 160.901 252.436 160.901 253.194 157.867 253.194 157.867 255.554 160.733 255.554 160.733 256.397Z" fill="#1A1A1A" transform="matrix(1 0 0 1.00146 15 145)"/><path d="M163.009 254.543 163.767 255.723C163.936 256.06 164.104 256.313 164.273 256.566L164.273 256.566C164.441 256.229 164.61 255.976 164.779 255.723L165.537 254.627 166.549 254.627 164.779 257.156 166.633 259.853 165.537 259.853 164.779 258.673C164.61 258.336 164.357 258.083 164.189 257.746L164.189 257.746C164.02 258.083 163.851 258.336 163.599 258.673L162.84 259.853 161.829 259.853 163.683 257.156 161.913 254.543 163.009 254.543Z" fill="#1A1A1A" transform="matrix(1 0 0 1.00146 15 145)"/><path d="M169.161 253.026 169.161 254.543 170.51 254.543 170.51 255.301 169.161 255.301 169.161 258.167C169.161 258.841 169.33 259.179 169.92 259.179 170.173 259.179 170.341 259.179 170.51 259.094L170.594 259.853C170.426 259.937 170.089 260.021 169.751 260.021 169.33 260.021 168.909 259.853 168.74 259.6 168.487 259.347 168.403 258.841 168.403 258.251L168.403 255.386 167.56 255.386 167.56 254.543 168.403 254.543 168.403 253.279 169.161 253.026Z" fill="#1A1A1A" transform="matrix(1 0 0 1.00146 15 145)"/><path d="M171.943 256.229C171.943 255.639 171.943 255.049 171.859 254.543L172.701 254.543 172.701 255.554 172.786 255.554C173.039 254.88 173.629 254.374 174.219 254.374 174.303 254.374 174.387 254.374 174.471 254.374L174.471 255.301C174.387 255.301 174.303 255.301 174.134 255.301 173.46 255.301 172.954 255.807 172.87 256.566 172.87 256.734 172.786 256.819 172.786 256.987L172.786 259.853 171.943 259.853 171.943 256.229Z" fill="#1A1A1A" transform="matrix(1 0 0 1.00146 15 145)"/><path d="M176.241 257.409C176.241 258.673 177.084 259.263 178.096 259.263 178.77 259.263 179.191 259.179 179.529 259.01L179.697 259.684C179.36 259.853 178.77 260.021 177.927 260.021 176.326 260.021 175.314 258.926 175.314 257.324 175.314 255.723 176.241 254.459 177.843 254.459 179.613 254.459 180.034 255.976 180.034 256.987 180.034 257.156 180.034 257.324 180.034 257.409L176.241 257.409ZM179.023 256.734C179.023 256.144 178.77 255.133 177.674 255.133 176.663 255.133 176.241 256.06 176.157 256.734L179.023 256.734Z" fill="#1A1A1A" transform="matrix(1 0 0 1.00146 15 145)"/><path d="M181.467 255.976C181.467 255.386 181.467 254.964 181.383 254.543L182.226 254.543 182.31 255.386 182.31 255.386C182.647 254.88 183.069 254.374 183.996 254.374 184.754 254.374 185.26 254.796 185.513 255.47L185.513 255.47C185.681 255.133 185.85 254.964 186.103 254.796 186.44 254.543 186.777 254.459 187.283 254.459 187.957 254.459 189.053 254.88 189.053 256.734L189.053 259.853 188.126 259.853 188.126 256.819C188.126 255.807 187.789 255.217 186.946 255.217 186.356 255.217 185.934 255.639 185.766 256.06 185.681 256.229 185.681 256.397 185.681 256.566L185.681 259.853 184.754 259.853 184.754 256.65C184.754 255.807 184.417 255.217 183.659 255.217 183.069 255.217 182.647 255.723 182.479 256.144 182.394 256.313 182.394 256.481 182.394 256.65L182.394 259.853 181.467 259.853 181.467 255.976Z" fill="#1A1A1A" transform="matrix(1 0 0 1.00146 15 145)"/><path d="M195.627 257.156C195.627 259.094 194.279 259.937 193.014 259.937 191.581 259.937 190.486 258.926 190.486 257.24 190.486 255.47 191.666 254.459 193.099 254.459 194.616 254.459 195.627 255.554 195.627 257.156ZM191.413 257.24C191.413 258.42 192.087 259.263 193.014 259.263 193.941 259.263 194.616 258.42 194.616 257.24 194.616 256.313 194.194 255.217 193.014 255.217 191.919 255.217 191.413 256.229 191.413 257.24Z" fill="#1A1A1A" transform="matrix(1 0 0 1.00146 15 145)"/><path d="M200.684 252.52 200.684 259.937 199.757 259.937 199.757 252.52 200.684 252.52Z" fill="#1A1A1A" transform="matrix(1 0 0 1.00146 15 145)"/><path d="M202.707 255.976C202.707 255.386 202.707 254.964 202.623 254.543L203.466 254.543 203.55 255.386 203.55 255.386C203.803 254.88 204.393 254.374 205.32 254.374 206.079 254.374 207.174 254.796 207.174 256.65L207.174 259.853 206.247 259.853 206.247 256.819C206.247 255.976 205.91 255.217 204.983 255.217 204.309 255.217 203.887 255.639 203.719 256.229 203.634 256.313 203.634 256.481 203.634 256.65L203.634 259.853 202.707 259.853 202.707 255.976Z" fill="#1A1A1A" transform="matrix(1 0 0 1.00146 15 145)"/><path d="M209.197 259.853 209.197 255.301 208.439 255.301 208.439 254.543 209.197 254.543 209.197 254.29C209.197 253.531 209.366 252.857 209.787 252.436 210.124 252.099 210.63 251.93 211.051 251.93 211.389 251.93 211.726 252.014 211.894 252.099L211.726 252.857C211.557 252.773 211.389 252.773 211.136 252.773 210.293 252.773 210.124 253.531 210.124 254.29L210.124 254.543 211.389 254.543 211.389 255.301 210.124 255.301 210.124 259.853 209.197 259.853Z" fill="#1A1A1A" transform="matrix(1 0 0 1.00146 15 145)"/><path d="M212.99 257.409C212.99 258.673 213.833 259.263 214.844 259.263 215.519 259.263 215.94 259.179 216.277 259.01L216.446 259.684C216.109 259.853 215.519 260.021 214.676 260.021 213.074 260.021 212.063 258.926 212.063 257.324 212.063 255.723 212.99 254.459 214.591 254.459 216.361 254.459 216.783 255.976 216.783 256.987 216.783 257.156 216.783 257.324 216.783 257.409L212.99 257.409ZM215.771 256.734C215.771 256.144 215.519 255.133 214.423 255.133 213.411 255.133 212.99 256.06 212.906 256.734L215.771 256.734Z" fill="#1A1A1A" transform="matrix(1 0 0 1.00146 15 145)"/><path d="M218.216 256.229C218.216 255.639 218.216 255.049 218.131 254.543L218.974 254.543 218.974 255.554 219.059 255.554C219.311 254.88 219.901 254.374 220.491 254.374 220.576 254.374 220.66 254.374 220.744 254.374L220.744 255.301C220.66 255.301 220.576 255.301 220.407 255.301 219.733 255.301 219.227 255.807 219.143 256.566 219.143 256.734 219.059 256.819 219.059 256.987L219.059 259.853 218.131 259.853 218.131 256.229Z" fill="#1A1A1A" transform="matrix(1 0 0 1.00146 15 145)"/><path d="M223.189 253.11C223.189 253.447 222.936 253.7 222.599 253.7 222.261 253.7 222.009 253.447 222.009 253.11 222.009 252.773 222.261 252.52 222.599 252.52 222.936 252.52 223.189 252.773 223.189 253.11ZM222.093 259.853 222.093 254.543 223.02 254.543 223.02 259.853 222.093 259.853Z" fill="#1A1A1A" transform="matrix(1 0 0 1.00146 15 145)"/><path d="M229.763 257.156C229.763 259.094 228.414 259.937 227.15 259.937 225.717 259.937 224.621 258.926 224.621 257.24 224.621 255.47 225.801 254.459 227.234 254.459 228.667 254.459 229.763 255.554 229.763 257.156ZM225.549 257.24C225.549 258.42 226.223 259.263 227.15 259.263 228.077 259.263 228.751 258.42 228.751 257.24 228.751 256.313 228.33 255.217 227.15 255.217 225.97 255.217 225.549 256.229 225.549 257.24Z" fill="#1A1A1A" transform="matrix(1 0 0 1.00146 15 145)"/><path d="M231.196 256.229C231.196 255.639 231.196 255.049 231.111 254.543L231.954 254.543 231.954 255.554 232.039 255.554C232.291 254.88 232.881 254.374 233.471 254.374 233.556 254.374 233.64 254.374 233.724 254.374L233.724 255.301C233.64 255.301 233.556 255.301 233.387 255.301 232.713 255.301 232.207 255.807 232.123 256.566 232.123 256.734 232.039 256.819 232.039 256.987L232.039 259.853 231.111 259.853 231.111 256.229Z" fill="#1A1A1A" transform="matrix(1 0 0 1.00146 15 145)"/><path d="M158.12 281.177 157.361 283.537 156.35 283.537 158.879 276.12 160.059 276.12 162.587 283.537 161.576 283.537 160.817 281.177 158.12 281.177ZM160.48 280.419 159.721 278.311C159.553 277.806 159.469 277.384 159.3 276.963L159.3 276.963C159.216 277.384 159.047 277.89 158.963 278.311L158.204 280.419 160.48 280.419Z" fill="#1A1A1A" transform="matrix(1 0 0 1.00146 15 145)"/><path d="M164.863 276.626 164.863 278.143 166.211 278.143 166.211 278.901 164.863 278.901 164.863 281.767C164.863 282.441 165.031 282.779 165.621 282.779 165.874 282.779 166.043 282.779 166.211 282.694L166.296 283.453C166.127 283.537 165.79 283.621 165.453 283.621 165.031 283.621 164.61 283.453 164.441 283.2 164.189 282.947 164.104 282.441 164.104 281.851L164.104 278.986 163.261 278.986 163.261 278.143 164.104 278.143 164.104 276.879 164.863 276.626Z" fill="#1A1A1A" transform="matrix(1 0 0 1.00146 15 145)"/><path d="M169.583 275.867 168.234 277.469 167.56 277.469 168.487 275.867 169.583 275.867ZM167.644 283.453 167.644 278.143 168.571 278.143 168.571 283.453 167.644 283.453Z" fill="#1A1A1A" transform="matrix(1 0 0 1.00146 15 145)"/><path d="M170.51 279.913C170.51 279.239 170.51 278.649 170.426 278.143L171.269 278.143 171.353 279.07 171.353 279.07C171.774 278.396 172.364 278.059 173.207 278.059 174.471 278.059 175.483 279.154 175.483 280.756 175.483 282.694 174.303 283.621 173.039 283.621 172.364 283.621 171.69 283.284 171.437 282.779L171.437 282.779 171.437 285.644 170.51 285.644 170.51 279.913ZM171.437 281.346C171.437 281.514 171.437 281.599 171.521 281.767 171.69 282.441 172.28 282.863 172.954 282.863 173.966 282.863 174.556 282.02 174.556 280.84 174.556 279.744 173.966 278.901 172.954 278.901 172.28 278.901 171.69 279.407 171.521 280.081 171.521 280.166 171.437 280.334 171.437 280.503L171.437 281.346Z" fill="#1A1A1A" transform="matrix(1 0 0 1.00146 15 145)"/><path d="M178.096 276.71C178.096 277.047 177.843 277.3 177.506 277.3 177.169 277.3 176.916 277.047 176.916 276.71 176.916 276.373 177.169 276.12 177.506 276.12 177.843 276.12 178.096 276.373 178.096 276.71ZM177 283.453 177 278.143 177.927 278.143 177.927 283.453 177 283.453Z" fill="#1A1A1A" transform="matrix(1 0 0 1.00146 15 145)"/><path d="M183.574 283.284C183.321 283.453 182.731 283.621 182.057 283.621 180.456 283.621 179.444 282.526 179.444 280.924 179.444 279.323 180.54 278.143 182.31 278.143 182.9 278.143 183.406 278.311 183.659 278.396L183.406 279.154C183.153 278.986 182.816 278.901 182.31 278.901 181.13 278.901 180.456 279.829 180.456 280.924 180.456 282.189 181.214 282.947 182.31 282.947 182.9 282.947 183.237 282.779 183.49 282.694L183.574 283.284Z" fill="#1A1A1A" transform="matrix(1 0 0 1.00146 15 145)"/><path d="M189.727 280.756C189.727 282.694 188.379 283.537 187.114 283.537 185.681 283.537 184.586 282.526 184.586 280.84 184.586 279.07 185.766 278.059 187.199 278.059 188.716 278.059 189.727 279.154 189.727 280.756ZM185.513 280.84C185.513 282.02 186.187 282.863 187.114 282.863 188.041 282.863 188.716 282.02 188.716 280.84 188.716 279.913 188.294 278.817 187.114 278.817 186.019 278.817 185.513 279.829 185.513 280.84Z" fill="#1A1A1A" transform="matrix(1 0 0 1.00146 15 145)"/><path d="M190.401 283.959 193.436 276.036 194.194 276.036 191.16 283.959 190.401 283.959Z" fill="#1A1A1A" transform="matrix(1 0 0 1.00146 15 145)"/><path d="M195.29 276.204C195.711 276.12 196.386 276.036 197.144 276.036 198.071 276.036 198.746 276.289 199.251 276.626 199.673 276.963 199.926 277.553 199.926 278.143 199.926 278.817 199.757 279.323 199.336 279.744 198.83 280.25 197.987 280.587 197.06 280.587 196.807 280.587 196.47 280.587 196.301 280.503L196.301 283.453 195.374 283.453 195.374 276.204ZM196.217 279.744C196.386 279.829 196.723 279.829 196.976 279.829 198.156 279.829 198.83 279.239 198.83 278.227 198.83 277.216 198.156 276.794 197.06 276.794 196.639 276.794 196.301 276.794 196.133 276.879L196.133 279.744Z" fill="#1A1A1A" transform="matrix(1 0 0 1.00146 15 145)"/><path d="M205.657 282.02C205.657 282.526 205.657 283.031 205.741 283.453L204.899 283.453 204.814 282.61 204.814 282.61C204.561 283.031 203.971 283.621 203.044 283.621 202.201 283.621 201.19 283.2 201.19 281.261L201.19 278.143 202.117 278.143 202.117 281.093C202.117 282.104 202.454 282.779 203.297 282.779 203.971 282.779 204.393 282.357 204.561 281.936 204.646 281.767 204.646 281.599 204.646 281.43L204.646 278.143 205.573 278.143 205.573 282.02Z" fill="#1A1A1A" transform="matrix(1 0 0 1.00146 15 145)"/><path d="M207.511 279.576C207.511 278.986 207.511 278.564 207.427 278.143L208.27 278.143 208.354 278.986 208.354 278.986C208.607 278.48 209.197 277.974 210.124 277.974 210.883 277.974 211.979 278.396 211.979 280.25L211.979 283.453 211.051 283.453 211.051 280.419C211.051 279.576 210.714 278.817 209.787 278.817 209.113 278.817 208.691 279.239 208.523 279.829 208.439 279.913 208.439 280.081 208.439 280.25L208.439 283.453 207.511 283.453 207.511 279.576Z" fill="#1A1A1A" transform="matrix(1 0 0 1.00146 15 145)"/><path d="M215.013 276.626 215.013 278.143 216.361 278.143 216.361 278.901 215.013 278.901 215.013 281.767C215.013 282.441 215.181 282.779 215.771 282.779 216.024 282.779 216.193 282.779 216.361 282.694L216.446 283.453C216.277 283.537 215.94 283.621 215.603 283.621 215.181 283.621 214.76 283.453 214.591 283.2 214.339 282.947 214.254 282.441 214.254 281.851L214.254 278.986 213.411 278.986 213.411 278.143 214.254 278.143 214.254 276.879 215.013 276.626Z" fill="#1A1A1A" transform="matrix(1 0 0 1.00146 15 145)"/><path d="M222.43 280.756C222.43 282.694 221.081 283.537 219.817 283.537 218.384 283.537 217.289 282.526 217.289 280.84 217.289 279.07 218.469 278.059 219.901 278.059 221.419 278.059 222.43 279.154 222.43 280.756ZM218.216 280.84C218.216 282.02 218.89 282.863 219.817 282.863 220.744 282.863 221.419 282.02 221.419 280.84 221.419 279.913 220.997 278.817 219.817 278.817 218.721 278.817 218.216 279.829 218.216 280.84Z" fill="#1A1A1A" transform="matrix(1 0 0 1.00146 15 145)"/><path d="M231.111 275.699 231.111 282.104C231.111 282.61 231.111 283.116 231.196 283.453L230.353 283.453 230.269 282.526 230.269 282.526C229.931 283.116 229.341 283.537 228.499 283.537 227.234 283.537 226.223 282.441 226.223 280.84 226.223 279.07 227.319 277.974 228.583 277.974 229.426 277.974 229.931 278.396 230.184 278.817L230.184 278.817 230.184 275.614 231.111 275.614ZM230.184 280.334C230.184 280.25 230.184 280.081 230.1 279.913 229.931 279.323 229.426 278.817 228.667 278.817 227.656 278.817 227.066 279.66 227.066 280.84 227.066 281.936 227.571 282.779 228.667 282.779 229.341 282.779 229.931 282.357 230.1 281.599 230.1 281.43 230.184 281.346 230.184 281.177L230.184 280.334Z" fill="#1A1A1A" transform="matrix(1 0 0 1.00146 15 145)"/><path d="M233.556 281.009C233.556 282.273 234.399 282.863 235.41 282.863 236.084 282.863 236.506 282.779 236.843 282.61L237.011 283.284C236.674 283.453 236.084 283.621 235.241 283.621 233.64 283.621 232.629 282.526 232.629 280.924 232.629 279.323 233.556 278.059 235.157 278.059 236.927 278.059 237.349 279.576 237.349 280.587 237.349 280.756 237.349 280.924 237.349 281.009L233.556 281.009ZM236.337 280.334C236.337 279.744 236.084 278.733 234.989 278.733 233.977 278.733 233.556 279.66 233.471 280.334L236.337 280.334Z" fill="#1A1A1A" transform="matrix(1 0 0 1.00146 15 145)"/><path d="M156.94 289.353C157.53 289.269 158.204 289.184 158.963 289.184 160.311 289.184 161.323 289.521 161.913 290.111 162.587 290.701 162.924 291.544 162.924 292.724 162.924 293.904 162.587 294.916 161.829 295.59 161.154 296.264 159.974 296.686 158.541 296.686 157.867 296.686 157.277 296.686 156.771 296.601L156.771 289.353ZM157.867 295.843C158.12 295.927 158.457 295.927 158.794 295.927 160.817 295.927 161.913 294.747 161.913 292.809 161.913 291.039 160.901 289.943 158.963 289.943 158.457 289.943 158.12 290.027 157.867 290.027L157.867 295.843Z" fill="#1A1A1A" transform="matrix(1 0 0 1.00146 15 145)"/><path d="M167.391 296.601 167.307 295.927 167.307 295.927C166.97 296.349 166.464 296.686 165.706 296.686 164.61 296.686 164.104 295.927 164.104 295.169 164.104 293.904 165.284 293.146 167.307 293.23L167.307 293.146C167.307 292.724 167.223 291.881 166.127 291.881 165.621 291.881 165.116 292.05 164.779 292.303L164.526 291.629C164.947 291.376 165.621 291.123 166.296 291.123 167.897 291.123 168.319 292.219 168.319 293.314L168.319 295.337C168.319 295.759 168.319 296.264 168.403 296.601L167.391 296.601ZM167.223 293.904C166.211 293.904 164.947 294.073 164.947 295.084 164.947 295.674 165.369 296.011 165.874 296.011 166.549 296.011 166.97 295.59 167.139 295.084 167.139 295 167.223 294.916 167.223 294.747L167.223 293.904Z" fill="#1A1A1A" transform="matrix(1 0 0 1.00146 15 145)"/><path d="M171.1 289.774 171.1 291.291 172.449 291.291 172.449 292.05 171.1 292.05 171.1 294.916C171.1 295.59 171.269 295.927 171.859 295.927 172.111 295.927 172.28 295.927 172.449 295.843L172.533 296.601C172.364 296.686 172.027 296.77 171.69 296.77 171.269 296.77 170.847 296.601 170.679 296.349 170.426 296.096 170.341 295.59 170.341 295L170.341 292.134 169.499 292.134 169.499 291.376 170.341 291.376 170.341 290.111 171.1 289.774Z" fill="#1A1A1A" transform="matrix(1 0 0 1.00146 15 145)"/><path d="M178.601 293.904C178.601 295.843 177.253 296.686 175.989 296.686 174.556 296.686 173.46 295.674 173.46 293.989 173.46 292.219 174.64 291.207 176.073 291.207 177.59 291.207 178.601 292.303 178.601 293.904ZM174.387 293.989C174.387 295.169 175.061 296.011 175.989 296.011 176.916 296.011 177.59 295.169 177.59 293.989 177.59 293.061 177.169 291.966 175.989 291.966 174.893 291.966 174.387 292.977 174.387 293.989Z" fill="#1A1A1A" transform="matrix(1 0 0 1.00146 15 145)"/><path d="M179.95 295.674C180.203 295.843 180.709 296.096 181.214 296.096 181.889 296.096 182.226 295.759 182.226 295.337 182.226 294.916 181.973 294.663 181.214 294.326 180.287 293.989 179.781 293.483 179.781 292.809 179.781 291.966 180.456 291.291 181.636 291.291 182.141 291.291 182.647 291.46 182.9 291.629L182.647 292.303C182.479 292.134 182.057 291.966 181.551 291.966 180.961 291.966 180.624 292.303 180.624 292.724 180.624 293.146 180.961 293.399 181.636 293.651 182.563 293.989 183.069 294.494 183.069 295.253 183.069 296.18 182.31 296.854 181.046 296.854 180.456 296.854 179.95 296.686 179.529 296.517L179.95 295.674Z" fill="#1A1A1A" transform="matrix(1 0 0 1.00146 15 145)"/><path d="M188.294 289.269 188.294 293.651C188.294 295.337 189.053 296.011 189.98 296.011 191.076 296.011 191.75 295.253 191.75 293.651L191.75 289.269 192.677 289.269 192.677 293.567C192.677 295.843 191.497 296.77 189.896 296.77 188.379 296.77 187.283 295.927 187.283 293.651L187.283 289.269 188.294 289.269ZM191.666 287.583 190.233 288.847 189.474 288.847 190.486 287.583 191.666 287.583Z" fill="#1A1A1A" transform="matrix(1 0 0 1.00146 15 145)"/><path d="M194.616 292.724C194.616 292.134 194.616 291.713 194.531 291.291L195.374 291.291 195.459 292.134 195.459 292.134C195.711 291.629 196.301 291.123 197.229 291.123 197.987 291.123 199.083 291.544 199.083 293.399L199.083 296.601 198.156 296.601 198.156 293.567C198.156 292.724 197.819 291.966 196.891 291.966 196.217 291.966 195.796 292.387 195.627 292.977 195.543 293.061 195.543 293.23 195.543 293.399L195.543 296.601 194.616 296.601 194.616 292.724Z" fill="#1A1A1A" transform="matrix(1 0 0 1.00146 15 145)"/><path d="M202.117 289.859C202.117 290.196 201.864 290.449 201.527 290.449 201.19 290.449 200.937 290.196 200.937 289.859 200.937 289.521 201.19 289.269 201.527 289.269 201.864 289.269 202.117 289.521 202.117 289.859ZM201.021 296.601 201.021 291.291 201.949 291.291 201.949 296.601 201.021 296.601Z" fill="#1A1A1A" transform="matrix(1 0 0 1.00146 15 145)"/><path d="M207.596 296.433C207.343 296.601 206.753 296.77 206.079 296.77 204.477 296.77 203.466 295.674 203.466 294.073 203.466 292.471 204.561 291.291 206.331 291.291 206.921 291.291 207.427 291.46 207.68 291.544L207.427 292.303C207.174 292.134 206.837 292.05 206.331 292.05 205.151 292.05 204.477 292.977 204.477 294.073 204.477 295.337 205.236 296.096 206.331 296.096 206.921 296.096 207.259 295.927 207.511 295.843L207.596 296.433Z" fill="#1A1A1A" transform="matrix(1 0 0 1.00146 15 145)"/><path d="M213.749 293.904C213.749 295.843 212.4 296.686 211.136 296.686 209.703 296.686 208.607 295.674 208.607 293.989 208.607 292.219 209.787 291.207 211.22 291.207 212.737 291.207 213.749 292.303 213.749 293.904ZM209.534 293.989C209.534 295.169 210.209 296.011 211.136 296.011 212.063 296.011 212.737 295.169 212.737 293.989 212.737 293.061 212.316 291.966 211.136 291.966 210.04 291.966 209.534 292.977 209.534 293.989Z" fill="#1A1A1A" transform="matrix(1 0 0 1.00146 15 145)"/><path d="M127.103 70.9686 121.709 67.85 127.103 64.7314Z" fill="#1A1A1A" transform="matrix(1 0 0 1.00146 15 145)"/><path d="M39.6986 30.1743 36.58 35.5686 33.5457 30.1743Z" fill="#1A1A1A" transform="matrix(1 0 0 1.00146 15 145)"/><path d="M123.731 100.806 151.293 100.806" stroke="#1A1A1A" stroke-width="0.842857" fill="none" transform="matrix(1 0 0 1.00146 15 145)"/><path d="M123.731 68.0186 151.293 68.0186" stroke="#1A1A1A" stroke-width="0.842857" fill="none" transform="matrix(1 0 0 1.00146 15 145)"/><path d="M125.586 103.84 120.276 100.721 125.586 97.6029Z" fill="#1A1A1A" transform="matrix(1 0 0 1.00146 15 145)"/><path d="M123.731 153.063 151.293 153.063" stroke="#1A1A1A" stroke-width="0.842857" fill="none" transform="matrix(1 0 0 1.00146 15 145)"/><path d="M125.586 156.097 120.276 152.979 125.586 149.86Z" fill="#1A1A1A" transform="matrix(1 0 0 1.00146 15 145)"/><path d="M123.731 207.09 151.293 207.09" stroke="#1A1A1A" stroke-width="0.842857" fill="none" transform="matrix(1 0 0 1.00146 15 145)"/><path d="M125.586 210.124 120.276 207.006 125.586 203.971Z" fill="#1A1A1A" transform="matrix(1 0 0 1.00146 15 145)"/><path d="M123.731 255.807 151.293 255.807" stroke="#1A1A1A" stroke-width="0.842857" fill="none" transform="matrix(1 0 0 1.00146 15 145)"/><path d="M125.586 258.841 120.276 255.723 125.586 252.604Z" fill="#1A1A1A" transform="matrix(1 0 0 1.00146 15 145)"/><path d="M108.897 231.954 151.293 231.954" stroke="#1A1A1A" stroke-width="0.842857" fill="none" transform="matrix(1 0 0 1.00146 15 145)"/><path d="M109.993 234.989 104.683 231.87 109.993 228.836Z" fill="#1A1A1A" transform="matrix(1 0 0 1.00146 15 145)"/><path d="M110.836 279.829 151.293 279.829" stroke="#1A1A1A" stroke-width="0.842857" fill="none" transform="matrix(1 0 0 1.00146 15 145)"/><path d="M111.679 282.863 106.369 279.744 111.679 276.626Z" fill="#1A1A1A" transform="matrix(1 0 0 1.00146 15 145)"/></g></svg>