<svg width="600" height="376" xmlns="http://www.w3.org/2000/svg"> <rect width="100%" height="100%" fill="#FEFEFE" />
<line x1="70" y1="256" x2="530" y2="256" stroke="#9f9f9f" stroke-width="1" />
<rect x="70" y="87" width="460" height="169" fill="#FEFEFE" />
<text text-anchor="middle" x="300.0" y="20" font-family="'Helvetica Neue', Arial, sans-serif" font-weight="bold" font-size="22" fill="#000000">American cheese consumption</text>
<text text-anchor="middle" x="300.0" y="42" font-family="'Helvetica Neue', Arial, sans-serif" font-size="14" fill="#000000">correlates with</text>
<text text-anchor="middle" x="300.0" y="68" font-family="'Helvetica Neue', Arial, sans-serif" font-weight="bold" font-size="22" fill="#ba0f27">Popularity of the &apos;this is fine&apos; meme</text>
<text text-anchor="start" x="23" y="301.3333333333333" font-family="'Helvetica Neue', Arial, sans-serif" font-size="14" fill="#9f9f9f">Per capita consumption of American cheese in the US &#183; Source: USDA</text>
<text text-anchor="start" x="23" y="324.66666666666663" font-family="'Helvetica Neue', Arial, sans-serif" font-size="14" fill="#9f9f9f">Relative volume of Google searches for &apos;this is fine&apos; (without quotes,</text>
<text text-anchor="start" x="23" y="340.66666666666663" font-family="'Helvetica Neue', Arial, sans-serif" font-size="14" fill="#9f9f9f">in the United States) &#183; Source: Google Trends</text>
<text text-anchor="start" x="23" y="363.99999999999994" font-family="'Helvetica Neue', Arial, sans-serif" font-size="14" fill="#9f9f9f">2006-2021, r=0.927, r&#178;=0.860, p&lt;0.01  &#183;  tylervigen.com/spurious/correlation/5468</text>
<polyline points="5,296.66666666666663 20,296.66666666666663" style="fill:none;stroke:#000000;stroke-width:2.8" stroke-dasharray="3,1" />
<polygon points="1.7000000000000002,296.66666666666663 5,293.3666666666666 8.3,296.66666666666663 5,299.96666666666664" stroke="#F7F7F7" stroke-width="2.75" fill="#F7F7F7"  />
<polygon points="1.7000000000000002,296.66666666666663 5,293.3666666666666 8.3,296.66666666666663 5,299.96666666666664" stroke="#000000" stroke-width="2.75" fill="#000000"  />
<polyline points="5,319.99999999999994 20,319.99999999999994" style="fill:none;stroke:#ba0f27;stroke-width:2.8" />
<circle cx="5" cy="319.99999999999994" r="2.75" stroke="#F7F7F7" stroke-width="2.75" fill="#F7F7F7" />
<circle cx="5" cy="319.99999999999994" r="2.75" stroke="#ba0f27" stroke-width="2.75" fill="#ba0f27"  />
<text x="5" y="176.5" transform="rotate(270 5 171.5)" text-anchor="middle" fill="#000000" font-family="'Helvetica Neue', Arial, sans-serif" font-size="14" dominant-baseline="central">Pounds per person</text>
<text x="171.5" y="-389" transform="rotate(90 100 100)" text-anchor="middle" fill="#ba0f27" font-family="'Helvetica Neue', Arial, sans-serif" font-size="14" dominant-baseline="central">Relative popularity</text>
<line x1="71" y1="94.75" x2="528" y2="94.75" stroke="#F3F3F3" stroke-width="1" fill="#FEFEFE" />
<text text-anchor="end" x="62" y="99.41666666666667" font-family="'Helvetica Neue', Arial, sans-serif" font-size="12" fill="#000000">16.1</text>
<text text-anchor="start" x="538" y="99.41666666666667" font-family="'Helvetica Neue', Arial, sans-serif" font-size="12" fill="#ba0f27">68</text>
<line x1="71" y1="133.125" x2="528" y2="133.125" stroke="#F3F3F3" stroke-width="1" fill="#FEFEFE" />
<text text-anchor="end" x="62" y="137.79166666666666" font-family="'Helvetica Neue', Arial, sans-serif" font-size="12">15.3</text>
<text text-anchor="start" x="538" y="137.79166666666666" font-family="'Helvetica Neue', Arial, sans-serif" font-size="12" fill="#ba0f27">52</text>
<line x1="71" y1="171.5" x2="528" y2="171.5" stroke="#F3F3F3" stroke-width="1" fill="#FEFEFE" />
<text text-anchor="end" x="62" y="176.16666666666666" font-family="'Helvetica Neue', Arial, sans-serif" font-size="12">14.4</text>
<text text-anchor="start" x="538" y="176.16666666666666" font-family="'Helvetica Neue', Arial, sans-serif" font-size="12" fill="#ba0f27">37</text>
<line x1="71" y1="209.875" x2="528" y2="209.875" stroke="#F3F3F3" stroke-width="1" fill="#FEFEFE" />
<text text-anchor="end" x="62" y="214.54166666666666" font-family="'Helvetica Neue', Arial, sans-serif" font-size="12">13.6</text>
<text text-anchor="start" x="538" y="214.54166666666666" font-family="'Helvetica Neue', Arial, sans-serif" font-size="12" fill="#ba0f27">21</text>
<line x1="71" y1="248.25" x2="528" y2="248.25" stroke="#F3F3F3" stroke-width="1" fill="#FEFEFE" />
<text text-anchor="end" x="62" y="252.91666666666666" font-family="'Helvetica Neue', Arial, sans-serif" font-size="12">12.8</text>
<text text-anchor="start" x="538" y="252.91666666666666" font-family="'Helvetica Neue', Arial, sans-serif" font-size="12" fill="#ba0f27">6</text>
<polyline points="77.75,256 77.75,262" style="fill:none;stroke:#000000;stroke-width:1" />
<polyline points="166.65,256 166.65,262" style="fill:none;stroke:#000000;stroke-width:1" />
<polyline points="255.55,256 255.55,262" style="fill:none;stroke:#000000;stroke-width:1" />
<polyline points="344.45000000000005,256 344.45000000000005,262" style="fill:none;stroke:#000000;stroke-width:1" />
<polyline points="433.35,256 433.35,262" style="fill:none;stroke:#000000;stroke-width:1" />
<polyline points="522.25,256 522.25,262" style="fill:none;stroke:#000000;stroke-width:1" />
<text text-anchor="middle" x="77.75" y="277" font-weight="bold" font-family="'Helvetica Neue', Arial, sans-serif" font-size="14">2006</text>
<text text-anchor="middle" x="166.65" y="277" font-weight="bold" font-family="'Helvetica Neue', Arial, sans-serif" font-size="14">2009</text>
<text text-anchor="middle" x="255.55" y="277" font-weight="bold" font-family="'Helvetica Neue', Arial, sans-serif" font-size="14">2012</text>
<text text-anchor="middle" x="344.45000000000005" y="277" font-weight="bold" font-family="'Helvetica Neue', Arial, sans-serif" font-size="14">2015</text>
<text text-anchor="middle" x="433.35" y="277" font-weight="bold" font-family="'Helvetica Neue', Arial, sans-serif" font-size="14">2018</text>
<text text-anchor="middle" x="522.25" y="277" font-weight="bold" font-family="'Helvetica Neue', Arial, sans-serif" font-size="14">2021</text>
<polyline points="77.75,248.25 107.38333333333333,245.97744811696109" style="fill:none;stroke:#ba0f27;stroke-width:2.8"  />
<polyline points="107.38333333333333,245.97744811696109 137.01666666666665,246.803819351073" style="fill:none;stroke:#ba0f27;stroke-width:2.8"  />
<polyline points="137.01666666666665,246.803819351073 166.65,245.56425010421268" style="fill:none;stroke:#ba0f27;stroke-width:2.8"  />
<polyline points="166.65,245.56425010421268 196.28333333333333,245.77086150627935" style="fill:none;stroke:#ba0f27;stroke-width:2.8"  />
<polyline points="196.28333333333333,245.77086150627935 225.91666666666666,244.531292259419" style="fill:none;stroke:#ba0f27;stroke-width:2.8"  />
<polyline points="225.91666666666666,244.531292259419 255.55,244.11809424667058" style="fill:none;stroke:#ba0f27;stroke-width:2.8"  />
<polyline points="255.55,244.11809424667058 285.18333333333334,243.4983096232404" style="fill:none;stroke:#ba0f27;stroke-width:2.8"  />
<polyline points="285.18333333333334,243.4983096232404 314.81666666666666,233.78826788488465" style="fill:none;stroke:#ba0f27;stroke-width:2.8"  />
<polyline points="314.81666666666666,233.78826788488465 344.45,197.22097510250472" style="fill:none;stroke:#ba0f27;stroke-width:2.8"  />
<polyline points="344.45,197.22097510250472 374.0833333333333,138.1349236401118" style="fill:none;stroke:#ba0f27;stroke-width:2.8"  />
<polyline points="374.0833333333333,138.1349236401118 403.71666666666664,133.38315888919738" style="fill:none;stroke:#ba0f27;stroke-width:2.8"  />
<polyline points="403.71666666666664,133.38315888919738 433.35,140.40754989730553" style="fill:none;stroke:#ba0f27;stroke-width:2.8"  />
<polyline points="433.35,140.40754989730553 462.98333333333335,133.17664665267046" style="fill:none;stroke:#ba0f27;stroke-width:2.8"  />
<polyline points="462.98333333333335,133.17664665267046 492.6166666666667,94.75" style="fill:none;stroke:#ba0f27;stroke-width:2.8"  />
<polyline points="492.6166666666667,94.75 522.25,146.81190836813414" style="fill:none;stroke:#ba0f27;stroke-width:2.8"  />
<circle cx="77.75" cy="248.25" r="2.75" stroke="#F7F7F7" stroke-width="2.75" fill="#F7F7F7" />
<circle cx="77.75" cy="248.25" r="2.75" stroke="#ba0f27" stroke-width="2.75" fill="#ba0f27"  />
<circle cx="107.38333333333333" cy="245.97744811696109" r="2.75" stroke="#F7F7F7" stroke-width="2.75" fill="#F7F7F7" />
<circle cx="107.38333333333333" cy="245.97744811696109" r="2.75" stroke="#ba0f27" stroke-width="2.75" fill="#ba0f27"  />
<circle cx="137.01666666666665" cy="246.803819351073" r="2.75" stroke="#F7F7F7" stroke-width="2.75" fill="#F7F7F7" />
<circle cx="137.01666666666665" cy="246.803819351073" r="2.75" stroke="#ba0f27" stroke-width="2.75" fill="#ba0f27"  />
<circle cx="166.65" cy="245.56425010421268" r="2.75" stroke="#F7F7F7" stroke-width="2.75" fill="#F7F7F7" />
<circle cx="166.65" cy="245.56425010421268" r="2.75" stroke="#ba0f27" stroke-width="2.75" fill="#ba0f27"  />
<circle cx="196.28333333333333" cy="245.77086150627935" r="2.75" stroke="#F7F7F7" stroke-width="2.75" fill="#F7F7F7" />
<circle cx="196.28333333333333" cy="245.77086150627935" r="2.75" stroke="#ba0f27" stroke-width="2.75" fill="#ba0f27"  />
<circle cx="225.91666666666666" cy="244.531292259419" r="2.75" stroke="#F7F7F7" stroke-width="2.75" fill="#F7F7F7" />
<circle cx="225.91666666666666" cy="244.531292259419" r="2.75" stroke="#ba0f27" stroke-width="2.75" fill="#ba0f27"  />
<circle cx="255.55" cy="244.11809424667058" r="2.75" stroke="#F7F7F7" stroke-width="2.75" fill="#F7F7F7" />
<circle cx="255.55" cy="244.11809424667058" r="2.75" stroke="#ba0f27" stroke-width="2.75" fill="#ba0f27"  />
<circle cx="285.18333333333334" cy="243.4983096232404" r="2.75" stroke="#F7F7F7" stroke-width="2.75" fill="#F7F7F7" />
<circle cx="285.18333333333334" cy="243.4983096232404" r="2.75" stroke="#ba0f27" stroke-width="2.75" fill="#ba0f27"  />
<circle cx="314.81666666666666" cy="233.78826788488465" r="2.75" stroke="#F7F7F7" stroke-width="2.75" fill="#F7F7F7" />
<circle cx="314.81666666666666" cy="233.78826788488465" r="2.75" stroke="#ba0f27" stroke-width="2.75" fill="#ba0f27"  />
<circle cx="344.45" cy="197.22097510250472" r="2.75" stroke="#F7F7F7" stroke-width="2.75" fill="#F7F7F7" />
<circle cx="344.45" cy="197.22097510250472" r="2.75" stroke="#ba0f27" stroke-width="2.75" fill="#ba0f27"  />
<circle cx="374.0833333333333" cy="138.1349236401118" r="2.75" stroke="#F7F7F7" stroke-width="2.75" fill="#F7F7F7" />
<circle cx="374.0833333333333" cy="138.1349236401118" r="2.75" stroke="#ba0f27" stroke-width="2.75" fill="#ba0f27"  />
<circle cx="403.71666666666664" cy="133.38315888919738" r="2.75" stroke="#F7F7F7" stroke-width="2.75" fill="#F7F7F7" />
<circle cx="403.71666666666664" cy="133.38315888919738" r="2.75" stroke="#ba0f27" stroke-width="2.75" fill="#ba0f27"  />
<circle cx="433.35" cy="140.40754989730553" r="2.75" stroke="#F7F7F7" stroke-width="2.75" fill="#F7F7F7" />
<circle cx="433.35" cy="140.40754989730553" r="2.75" stroke="#ba0f27" stroke-width="2.75" fill="#ba0f27"  />
<circle cx="462.98333333333335" cy="133.17664665267046" r="2.75" stroke="#F7F7F7" stroke-width="2.75" fill="#F7F7F7" />
<circle cx="462.98333333333335" cy="133.17664665267046" r="2.75" stroke="#ba0f27" stroke-width="2.75" fill="#ba0f27"  />
<circle cx="492.6166666666667" cy="94.75" r="2.75" stroke="#F7F7F7" stroke-width="2.75" fill="#F7F7F7" />
<circle cx="492.6166666666667" cy="94.75" r="2.75" stroke="#ba0f27" stroke-width="2.75" fill="#ba0f27"  />
<circle cx="522.25" cy="146.81190836813414" r="2.75" stroke="#F7F7F7" stroke-width="2.75" fill="#F7F7F7" />
<circle cx="522.25" cy="146.81190836813414" r="2.75" stroke="#ba0f27" stroke-width="2.75" fill="#ba0f27"  />
<polyline points="77.75,235.5925508753893 107.38333333333333,248.25" style="fill:none;stroke:#000000;stroke-width:2.8" stroke-dasharray="3,1"  />
<polyline points="107.38333333333333,248.25 137.01666666666665,232.5755571346497" style="fill:none;stroke:#000000;stroke-width:2.8" stroke-dasharray="3,1"  />
<polyline points="137.01666666666665,232.5755571346497 166.65,222.14604184935442" style="fill:none;stroke:#000000;stroke-width:2.8" stroke-dasharray="3,1"  />
<polyline points="166.65,222.14604184935442 196.28333333333333,224.49001390946748" style="fill:none;stroke:#000000;stroke-width:2.8" stroke-dasharray="3,1"  />
<polyline points="196.28333333333333,224.49001390946748 225.91666666666666,236.8179144870128" style="fill:none;stroke:#000000;stroke-width:2.8" stroke-dasharray="3,1"  />
<polyline points="225.91666666666666,236.8179144870128 255.55,226.713306219951" style="fill:none;stroke:#000000;stroke-width:2.8" stroke-dasharray="3,1"  />
<polyline points="255.55,226.713306219951 285.18333333333334,222.05321127271623" style="fill:none;stroke:#000000;stroke-width:2.8" stroke-dasharray="3,1"  />
<polyline points="285.18333333333334,222.05321127271623 314.81666666666666,207.74337788394666" style="fill:none;stroke:#000000;stroke-width:2.8" stroke-dasharray="3,1"  />
<polyline points="314.81666666666666,207.74337788394666 344.45,190.16126666868257" style="fill:none;stroke:#000000;stroke-width:2.8" stroke-dasharray="3,1"  />
<polyline points="344.45,190.16126666868257 374.0833333333333,175.41512956971366" style="fill:none;stroke:#000000;stroke-width:2.8" stroke-dasharray="3,1"  />
<polyline points="374.0833333333333,175.41512956971366 403.71666666666664,141.62479967342995" style="fill:none;stroke:#000000;stroke-width:2.8" stroke-dasharray="3,1"  />
<polyline points="403.71666666666664,141.62479967342995 433.35,127.11538054488835" style="fill:none;stroke:#000000;stroke-width:2.8" stroke-dasharray="3,1"  />
<polyline points="433.35,127.11538054488835 462.98333333333335,120.79361827583084" style="fill:none;stroke:#000000;stroke-width:2.8" stroke-dasharray="3,1"  />
<polyline points="462.98333333333335,120.79361827583084 492.6166666666667,122.5991729914427" style="fill:none;stroke:#000000;stroke-width:2.8" stroke-dasharray="3,1"  />
<polyline points="492.6166666666667,122.5991729914427 522.25,94.75" style="fill:none;stroke:#000000;stroke-width:2.8" stroke-dasharray="3,1"  />
<polygon points="74.45,235.5925508753893 77.75,232.29255087538928 81.05,235.5925508753893 77.75,238.8925508753893" stroke="#F7F7F7" stroke-width="2.75" fill="#F7F7F7"  />
<polygon points="74.45,235.5925508753893 77.75,232.29255087538928 81.05,235.5925508753893 77.75,238.8925508753893" stroke="#000000" stroke-width="2.75" fill="#000000"  />
<polygon points="104.08333333333333,248.25 107.38333333333333,244.95 110.68333333333332,248.25 107.38333333333333,251.55" stroke="#F7F7F7" stroke-width="2.75" fill="#F7F7F7"  />
<polygon points="104.08333333333333,248.25 107.38333333333333,244.95 110.68333333333332,248.25 107.38333333333333,251.55" stroke="#000000" stroke-width="2.75" fill="#000000"  />
<polygon points="133.71666666666664,232.5755571346497 137.01666666666665,229.2755571346497 140.31666666666666,232.5755571346497 137.01666666666665,235.8755571346497" stroke="#F7F7F7" stroke-width="2.75" fill="#F7F7F7"  />
<polygon points="133.71666666666664,232.5755571346497 137.01666666666665,229.2755571346497 140.31666666666666,232.5755571346497 137.01666666666665,235.8755571346497" stroke="#000000" stroke-width="2.75" fill="#000000"  />
<polygon points="163.35,222.14604184935442 166.65,218.8460418493544 169.95000000000002,222.14604184935442 166.65,225.44604184935443" stroke="#F7F7F7" stroke-width="2.75" fill="#F7F7F7"  />
<polygon points="163.35,222.14604184935442 166.65,218.8460418493544 169.95000000000002,222.14604184935442 166.65,225.44604184935443" stroke="#000000" stroke-width="2.75" fill="#000000"  />
<polygon points="192.98333333333332,224.49001390946748 196.28333333333333,221.19001390946747 199.58333333333334,224.49001390946748 196.28333333333333,227.7900139094675" stroke="#F7F7F7" stroke-width="2.75" fill="#F7F7F7"  />
<polygon points="192.98333333333332,224.49001390946748 196.28333333333333,221.19001390946747 199.58333333333334,224.49001390946748 196.28333333333333,227.7900139094675" stroke="#000000" stroke-width="2.75" fill="#000000"  />
<polygon points="222.61666666666665,236.8179144870128 225.91666666666666,233.5179144870128 229.21666666666667,236.8179144870128 225.91666666666666,240.11791448701283" stroke="#F7F7F7" stroke-width="2.75" fill="#F7F7F7"  />
<polygon points="222.61666666666665,236.8179144870128 225.91666666666666,233.5179144870128 229.21666666666667,236.8179144870128 225.91666666666666,240.11791448701283" stroke="#000000" stroke-width="2.75" fill="#000000"  />
<polygon points="252.25,226.713306219951 255.55,223.41330621995098 258.85,226.713306219951 255.55,230.013306219951" stroke="#F7F7F7" stroke-width="2.75" fill="#F7F7F7"  />
<polygon points="252.25,226.713306219951 255.55,223.41330621995098 258.85,226.713306219951 255.55,230.013306219951" stroke="#000000" stroke-width="2.75" fill="#000000"  />
<polygon points="281.8833333333333,222.05321127271623 285.18333333333334,218.75321127271621 288.48333333333335,222.05321127271623 285.18333333333334,225.35321127271624" stroke="#F7F7F7" stroke-width="2.75" fill="#F7F7F7"  />
<polygon points="281.8833333333333,222.05321127271623 285.18333333333334,218.75321127271621 288.48333333333335,222.05321127271623 285.18333333333334,225.35321127271624" stroke="#000000" stroke-width="2.75" fill="#000000"  />
<polygon points="311.51666666666665,207.74337788394666 314.81666666666666,204.44337788394665 318.1166666666667,207.74337788394666 314.81666666666666,211.04337788394668" stroke="#F7F7F7" stroke-width="2.75" fill="#F7F7F7"  />
<polygon points="311.51666666666665,207.74337788394666 314.81666666666666,204.44337788394665 318.1166666666667,207.74337788394666 314.81666666666666,211.04337788394668" stroke="#000000" stroke-width="2.75" fill="#000000"  />
<polygon points="341.15,190.16126666868257 344.45,186.86126666868256 347.75,190.16126666868257 344.45,193.46126666868258" stroke="#F7F7F7" stroke-width="2.75" fill="#F7F7F7"  />
<polygon points="341.15,190.16126666868257 344.45,186.86126666868256 347.75,190.16126666868257 344.45,193.46126666868258" stroke="#000000" stroke-width="2.75" fill="#000000"  />
<polygon points="370.7833333333333,175.41512956971366 374.0833333333333,172.11512956971364 377.3833333333333,175.41512956971366 374.0833333333333,178.71512956971367" stroke="#F7F7F7" stroke-width="2.75" fill="#F7F7F7"  />
<polygon points="370.7833333333333,175.41512956971366 374.0833333333333,172.11512956971364 377.3833333333333,175.41512956971366 374.0833333333333,178.71512956971367" stroke="#000000" stroke-width="2.75" fill="#000000"  />
<polygon points="400.41666666666663,141.62479967342995 403.71666666666664,138.32479967342994 407.01666666666665,141.62479967342995 403.71666666666664,144.92479967342996" stroke="#F7F7F7" stroke-width="2.75" fill="#F7F7F7"  />
<polygon points="400.41666666666663,141.62479967342995 403.71666666666664,138.32479967342994 407.01666666666665,141.62479967342995 403.71666666666664,144.92479967342996" stroke="#000000" stroke-width="2.75" fill="#000000"  />
<polygon points="430.05,127.11538054488835 433.35,123.81538054488836 436.65000000000003,127.11538054488835 433.35,130.41538054488836" stroke="#F7F7F7" stroke-width="2.75" fill="#F7F7F7"  />
<polygon points="430.05,127.11538054488835 433.35,123.81538054488836 436.65000000000003,127.11538054488835 433.35,130.41538054488836" stroke="#000000" stroke-width="2.75" fill="#000000"  />
<polygon points="459.68333333333334,120.79361827583084 462.98333333333335,117.49361827583084 466.28333333333336,120.79361827583084 462.98333333333335,124.09361827583083" stroke="#F7F7F7" stroke-width="2.75" fill="#F7F7F7"  />
<polygon points="459.68333333333334,120.79361827583084 462.98333333333335,117.49361827583084 466.28333333333336,120.79361827583084 462.98333333333335,124.09361827583083" stroke="#000000" stroke-width="2.75" fill="#000000"  />
<polygon points="489.31666666666666,122.5991729914427 492.6166666666667,119.2991729914427 495.9166666666667,122.5991729914427 492.6166666666667,125.8991729914427" stroke="#F7F7F7" stroke-width="2.75" fill="#F7F7F7"  />
<polygon points="489.31666666666666,122.5991729914427 492.6166666666667,119.2991729914427 495.9166666666667,122.5991729914427 492.6166666666667,125.8991729914427" stroke="#000000" stroke-width="2.75" fill="#000000"  />
<polygon points="518.95,94.75 522.25,91.45 525.55,94.75 522.25,98.05" stroke="#F7F7F7" stroke-width="2.75" fill="#F7F7F7"  />
<polygon points="518.95,94.75 522.25,91.45 525.55,94.75 522.25,98.05" stroke="#000000" stroke-width="2.75" fill="#000000"  />
</svg>