<svg width="462" height="510" xmlns="http://www.w3.org/2000/svg" xmlns:xlink="http://www.w3.org/1999/xlink" xml:space="preserve" overflow="hidden"><defs><clipPath id="clip0"><rect x="0" y="21" width="462" height="510"/></clipPath></defs><g clip-path="url(#clip0)" transform="matrix(1 0 0 1 0 -21)"><path d="M67.9206 519.135 495.363 519.135" stroke="#000000" stroke-width="2.38318" stroke-miterlimit="8" fill="none" fill-rule="evenodd" transform="matrix(1.0008 0 0 1 -33.7438 -17.1308)"/><path d="M0 0 8.34009e-05 480.368" stroke="#000000" stroke-width="2.38318" stroke-miterlimit="8" fill="none" fill-rule="evenodd" transform="matrix(1.0008 0 0 -1 35.0261 502.56)"/><path d="M100.596 494.98 68.715 446.846" stroke="#000000" stroke-width="2.38318" stroke-miterlimit="8" fill="none" fill-rule="evenodd" transform="matrix(1.0008 0 0 1 -33.7438 -17.1308)"/><path d="M195.394 483.146 68.715 285.584" stroke="#000000" stroke-width="2.38318" stroke-miterlimit="8" fill="none" fill-rule="evenodd" transform="matrix(1.0008 0 0 1 -33.7438 -17.1308)"/><path d="M289.759 470.35 101.285 175.164" stroke="#000000" stroke-width="2.38318" stroke-miterlimit="8" fill="none" fill-rule="evenodd" transform="matrix(1.0008 0 0 1 -33.7438 -17.1308)"/><path d="M359.666 423.481 171.192 128.294" stroke="#000000" stroke-width="2.38318" stroke-miterlimit="8" fill="none" fill-rule="evenodd" transform="matrix(1.0008 0 0 1 -33.7438 -17.1308)"/><path d="M432.75 381.378 244.276 86.1916" stroke="#000000" stroke-width="2.38318" stroke-miterlimit="8" fill="none" fill-rule="evenodd" transform="matrix(1.0008 0 0 1 -33.7438 -17.1308)"/><path d="M0.647466-1.00034 162.312 103.637 161.017 105.638-0.647466 1.00034ZM158.991 96.7133 163.65 105.922 153.341 105.444C152.683 105.414 152.175 104.856 152.206 104.198 152.237 103.541 152.794 103.033 153.451 103.063L161.719 103.447 160.601 105.175 156.865 97.7889C156.568 97.2019 156.804 96.4845 157.391 96.1874 157.978 95.8903 158.694 96.1263 158.991 96.7133Z" transform="matrix(1.0008 0 0 -1 118.504 380.727)"/><path d="M157.29 321.332 157.29 366.768 154.907 366.768 154.907 321.332ZM161.298 360.219 156.098 369.133 150.898 360.219C150.567 359.651 150.759 358.921 151.327 358.59 151.896 358.258 152.625 358.45 152.957 359.019L157.128 366.168 155.069 366.168 159.239 359.019C159.571 358.45 160.3 358.258 160.869 358.59 161.438 358.921 161.629 359.651 161.298 360.219Z" transform="matrix(1.0008 0 0 1 -33.7438 -17.1308)"/><path d="M109.229 356.285 189.463 356.285 189.463 437.313 109.229 437.313Z" stroke="#000000" stroke-width="2.38318" stroke-miterlimit="8" fill="none" transform="matrix(1.0008 0 0 1 -33.7438 -17.1308)"/><path d="M280.029 315.034 286.587 310.547 291.407 317.594 284.849 322.08Z" stroke="#000000" stroke-width="2.38318" stroke-miterlimit="8" fill="none" fill-rule="evenodd" transform="matrix(1.0008 0 0 1 -33.7438 -17.1308)"/><path d="M90.5607 254.206 220.841 254.206 220.841 314.579 90.5607 314.579Z" fill="#FFFFFF" transform="matrix(1.0008 0 0 1 -33.7438 -17.1308)"/><text font-family="Candara,Candara_MSFontService,sans-serif" font-weight="400" font-size="16" transform="matrix(0.795026 0 0 0.794393 88.986 249)">Región</text><text font-family="Candara,Candara_MSFontService,sans-serif" font-weight="400" font-size="16" transform="matrix(0.795026 0 0 0.794393 129.665 249)">de la </text><text font-family="Candara,Candara_MSFontService,sans-serif" font-weight="400" font-size="16" transform="matrix(0.795026 0 0 0.794393 87.7935 264)">superficie</text><text font-family="Candara,Candara_MSFontService,sans-serif" font-weight="400" font-size="16" transform="matrix(0.795026 0 0 0.794393 142.783 264)">de </text><text font-family="Candara,Candara_MSFontService,sans-serif" font-weight="400" font-size="16" transform="matrix(0.795026 0 0 0.794393 68.3153 279)">respuesta</text><text font-family="Candara,Candara_MSFontService,sans-serif" font-weight="400" font-size="16" transform="matrix(0.795026 0 0 0.794393 123.702 279)">de primer </text><text font-family="Candara,Candara_MSFontService,sans-serif" font-weight="400" font-size="16" transform="matrix(0.795026 0 0 0.794393 82.0963 295)">orden</text><text font-family="Candara,Candara_MSFontService,sans-serif" font-weight="400" font-size="16" transform="matrix(0.795026 0 0 0.794393 116.945 295)">ajustada</text><path d="M307.43 244.673 414.673 244.673 414.673 285.981 307.43 285.981Z" fill="#FFFFFF" transform="matrix(1.0008 0 0 1 -33.7438 -17.1308)"/><text font-family="Candara,Candara_MSFontService,sans-serif" font-weight="400" font-size="16" transform="matrix(0.795026 0 0 0.794393 287.836 237)">Trayectoria</text><text font-family="Candara,Candara_MSFontService,sans-serif" font-weight="400" font-size="16" transform="matrix(0.795026 0 0 0.794393 350.675 237)">del </text><text font-family="Candara,Candara_MSFontService,sans-serif" font-weight="400" font-size="16" transform="matrix(0.795026 0 0 0.794393 293.55 252)">ascenso</text><text font-family="Candara,Candara_MSFontService,sans-serif" font-weight="400" font-size="16" transform="matrix(0.795026 0 0 0.794393 339.397 252)">más</text><text font-family="Candara,Candara_MSFontService,sans-serif" font-weight="400" font-size="16" transform="matrix(0.795026 0 0 0.794393 300.441 267)">empinado</text><text font-family="Cambria Math,Cambria Math_MSFontService,sans-serif" font-weight="400" font-size="24" transform="matrix(-1.46044e-16 -0.794393 0.795026 -1.45928e-16 19.4245 265)">𝑥</text><text font-family="Cambria Math,Cambria Math_MSFontService,sans-serif" font-weight="400" font-size="18" transform="matrix(-1.46044e-16 -0.794393 0.795026 -1.45928e-16 23.3202 255)">2</text><text font-family="Cambria Math,Cambria Math_MSFontService,sans-serif" font-weight="400" font-size="24" transform="matrix(0.795026 0 0 0.794393 237.265 521)">𝑥</text><text font-family="Cambria Math,Cambria Math_MSFontService,sans-serif" font-weight="400" font-size="18" transform="matrix(0.795026 0 0 0.794393 246.842 525)">1</text><text font-family="Cambria Math,Cambria Math_MSFontService,sans-serif" font-weight="400" font-size="19" transform="matrix(0.795026 0 0 0.794393 68.5658 486)">𝑦</text><path d="M3.6186-10.6273 6.12435-8.30585 5.72638-7.88574 3.12481-9.67665 3.04375-9.67665 0.397972-7.88574 0-8.30585 2.63104-10.6273Z" transform="matrix(1.0008 0 0 1 70.5104 485.72)"/><text font-family="Cambria Math,Cambria Math_MSFontService,sans-serif" font-weight="400" font-size="19" transform="matrix(0.795026 0 0 0.794393 81.291 486)">=</text><text font-family="Cambria Math,Cambria Math_MSFontService,sans-serif" font-weight="400" font-size="19" transform="matrix(0.795026 0 0 0.794393 96.5451 486)">10</text><text font-family="Cambria Math,Cambria Math_MSFontService,sans-serif" font-weight="400" font-size="19" transform="matrix(0.795026 0 0 0.794393 148.82 487)">𝑦</text><path d="M3.6186-10.6273 6.12435-8.30585 5.72638-7.88574 3.12481-9.67665 3.04375-9.67665 0.397972-7.88574 0-8.30585 2.63104-10.6273Z" transform="matrix(1.0008 0 0 1 150.765 486.514)"/><text font-family="Cambria Math,Cambria Math_MSFontService,sans-serif" font-weight="400" font-size="19" transform="matrix(0.795026 0 0 0.794393 161.546 487)">=</text><text font-family="Cambria Math,Cambria Math_MSFontService,sans-serif" font-weight="400" font-size="19" transform="matrix(0.795026 0 0 0.794393 176.799 487)">20</text><text font-family="Cambria Math,Cambria Math_MSFontService,sans-serif" font-weight="400" font-size="19" transform="matrix(0.795026 0 0 0.794393 235.473 469)">𝑦</text><path d="M3.6186-10.6273 6.12435-8.30585 5.72638-7.88574 3.12481-9.67665 3.04375-9.67665 0.397972-7.88574 0-8.30585 2.63104-10.6273Z" transform="matrix(1.0008 0 0 1 237.418 469.037)"/><text font-family="Cambria Math,Cambria Math_MSFontService,sans-serif" font-weight="400" font-size="19" transform="matrix(0.795026 0 0 0.794393 248.199 469)">=</text><text font-family="Cambria Math,Cambria Math_MSFontService,sans-serif" font-weight="400" font-size="19" transform="matrix(0.795026 0 0 0.794393 263.452 469)">30</text><text font-family="Cambria Math,Cambria Math_MSFontService,sans-serif" font-weight="400" font-size="19" transform="matrix(0.795026 0 0 0.794393 305.845 425)">𝑦</text><path d="M3.6186-10.6273 6.12435-8.30585 5.72638-7.88574 3.12481-9.67665 3.04375-9.67665 0.397972-7.88574 0-8.30585 2.63104-10.6273Z" transform="matrix(1.0008 0 0 1 307.79 424.551)"/><text font-family="Cambria Math,Cambria Math_MSFontService,sans-serif" font-weight="400" font-size="19" transform="matrix(0.795026 0 0 0.794393 318.571 425)">=</text><text font-family="Cambria Math,Cambria Math_MSFontService,sans-serif" font-weight="400" font-size="19" transform="matrix(0.795026 0 0 0.794393 333.825 425)">40</text><text font-family="Cambria Math,Cambria Math_MSFontService,sans-serif" font-weight="400" font-size="19" transform="matrix(0.795026 0 0 0.794393 373.071 379)">𝑦</text><path d="M3.6186-10.6273 6.12435-8.30585 5.72638-7.88574 3.12481-9.67665 3.04375-9.67665 0.397972-7.88574 0-8.30585 2.63104-10.6273Z" transform="matrix(1.0008 0 0 1 375.017 379.271)"/><text font-family="Cambria Math,Cambria Math_MSFontService,sans-serif" font-weight="400" font-size="19" transform="matrix(0.795026 0 0 0.794393 385.797 379)">=</text><text font-family="Cambria Math,Cambria Math_MSFontService,sans-serif" font-weight="400" font-size="19" transform="matrix(0.795026 0 0 0.794393 401.051 379)">50</text></g></svg>