<svg width="350" height="340" xmlns="http://www.w3.org/2000/svg" xmlns:xlink="http://www.w3.org/1999/xlink" xml:space="preserve" overflow="hidden"><g transform="translate(-627 -124)"><path d="M689.4 201.95 684.8 201.95" stroke="#333333" fill="none"/><path d="M689.4 270.75 684.8 270.75" stroke="#333333" fill="none"/><path d="M689.4 339.65 684.8 339.65" stroke="#333333" fill="none"/><path d="M758.4 408.25 758.4 412.85" stroke="#333333" fill="none"/><path d="M792.8 408.25 792.8 412.85" stroke="#333333" fill="none"/><path d="M827.2 408.25 827.2 412.85" stroke="#333333" fill="none"/><path d="M861.7 408.25 861.7 412.85" stroke="#333333" fill="none"/><path d="M896.1 408.25 896.1 412.85" stroke="#333333" fill="none"/><path d="M723.9 408.25 723.9 412.85" stroke="#333333" fill="none"/><path d="M689.5 167.05 689.5 408.25" stroke="#333333" fill="none"/><path d="M930.8 408.55 689.3 408.55" stroke="#333333" fill="none"/><path d="M686.4 414.15C686.4 416.35 685.6 417.55 684.1 417.55 682.8 417.55 682 416.35 682 414.25 682 412.05 682.9 410.85 684.3 410.85 685.7 410.85 686.4 412.05 686.4 414.15ZM682.9 414.25C682.9 415.95 683.4 416.85 684.2 416.85 685.1 416.85 685.5 415.85 685.5 414.15 685.5 412.55 685.1 411.55 684.2 411.55 683.5 411.45 682.9 412.45 682.9 414.25Z" fill="#666666"/><path d="M723.9 417.95 723.9 417.95 722.8 418.55 722.6 417.85 724 417.05 724.7 417.05 724.7 423.55 723.9 423.55 723.9 417.95Z" fill="#666666"/><path d="M676.7 342.55 676.7 342.05 677.4 341.35C679.1 339.75 679.8 338.95 679.8 337.95 679.8 337.25 679.5 336.65 678.5 336.65 677.9 336.65 677.4 336.95 677.1 337.15L676.8 336.55C677.2 336.15 677.9 335.85 678.6 335.85 680 335.85 680.6 336.85 680.6 337.75 680.6 338.95 679.7 339.95 678.4 341.25L677.9 341.75 677.9 341.75 680.8 341.75 680.8 342.45 676.7 342.45Z" fill="#666666"/><path d="M755.7 423.65 755.7 423.15 756.4 422.45C758.1 420.85 758.8 420.05 758.8 419.05 758.8 418.35 758.5 417.75 757.5 417.75 756.9 417.75 756.4 418.05 756.1 418.25L755.8 417.65C756.2 417.25 756.9 416.95 757.6 416.95 759 416.95 759.6 417.95 759.6 418.85 759.6 420.05 758.7 421.05 757.4 422.35L756.9 422.85 756.9 422.85 759.8 422.85 759.8 423.55 755.7 423.55Z" fill="#666666"/><path d="M790.9 422.65C791.1 422.85 791.7 423.05 792.3 423.05 793.4 423.05 793.8 422.35 793.8 421.75 793.8 420.85 793 420.45 792.1 420.45L791.6 420.45 791.6 419.75 792.1 419.75C792.7 419.75 793.5 419.45 793.5 418.65 793.5 418.15 793.2 417.65 792.4 417.65 791.9 417.65 791.4 417.85 791.1 418.05L790.9 417.45C791.2 417.25 791.9 416.95 792.6 416.95 793.9 416.95 794.5 417.75 794.5 418.45 794.5 419.15 794.1 419.65 793.3 419.95L793.3 419.95C794.1 420.15 794.7 420.75 794.7 421.65 794.7 422.65 793.9 423.55 792.3 423.55 791.6 423.55 790.9 423.35 790.6 423.15L790.9 422.65Z" fill="#666666"/><path d="M679.4 273.25 679.4 271.45 676.4 271.45 676.4 270.85 679.3 266.75 680.2 266.75 680.2 270.75 681.1 270.75 681.1 271.45 680.2 271.45 680.2 273.25 679.4 273.25ZM679.4 270.75 679.4 268.55C679.4 268.25 679.4 267.85 679.4 267.55L679.4 267.55C679.2 267.95 679 268.25 678.9 268.55L677.3 270.75 677.3 270.75 679.4 270.75Z" fill="#666666"/><path d="M828.1 423.65 828.1 421.85 825.1 421.85 825.1 421.25 828 417.15 829 417.15 829 421.15 829.9 421.15 829.9 421.85 829 421.85 829 423.65 828.1 423.65ZM828.1 421.25 828.1 419.05C828.1 418.75 828.1 418.35 828.1 418.05L828.1 418.05C827.9 418.45 827.7 418.75 827.6 419.05L826 421.25 826 421.25 828.1 421.25Z" fill="#666666"/><path d="M862.9 417.95 860.4 417.95 860.2 419.65C860.4 419.65 860.5 419.65 860.7 419.65 861.2 419.65 861.7 419.75 862.1 419.95 862.6 420.25 863 420.75 863 421.65 863 422.95 862 423.85 860.6 423.85 859.9 423.85 859.3 423.65 859 423.45L859.2 422.75C859.5 422.95 860 423.15 860.6 423.15 861.4 423.15 862.1 422.65 862.1 421.75 862.1 420.95 861.5 420.35 860.2 420.35 859.8 420.35 859.5 420.35 859.3 420.45L859.7 417.35 862.8 417.35 862.8 417.95Z" fill="#666666"/><path d="M680.4 198.85C680.2 198.85 680 198.85 679.7 198.85 678.3 199.05 677.6 200.05 677.4 201.15L677.4 201.15C677.7 200.75 678.2 200.35 679 200.35 680.1 200.35 681 201.15 681 202.45 681 203.65 680.2 204.75 678.8 204.75 677.4 204.75 676.5 203.65 676.5 201.95 676.5 200.65 677 199.65 677.6 199.05 678.1 198.55 678.9 198.15 679.7 198.05 680 198.05 680.2 198.05 680.3 198.05L680.3 198.85ZM680.2 202.65C680.2 201.75 679.7 201.15 678.9 201.15 678.4 201.15 677.9 201.45 677.6 201.95 677.5 202.05 677.5 202.15 677.5 202.35 677.5 203.45 678 204.25 678.9 204.25 679.7 204.15 680.2 203.55 680.2 202.65Z" fill="#666666"/><path d="M897.1 417.75C896.9 417.75 896.7 417.75 896.4 417.75 895 417.95 894.3 418.95 894.1 420.05L894.1 420.05C894.4 419.65 894.9 419.25 895.7 419.25 896.8 419.25 897.7 420.05 897.7 421.35 897.7 422.55 896.9 423.65 895.5 423.65 894.1 423.65 893.2 422.55 893.2 420.85 893.2 419.55 893.7 418.55 894.3 417.95 894.8 417.45 895.6 417.05 896.4 416.95 896.7 416.95 896.9 416.95 897 416.95L897 417.75ZM896.8 421.55C896.8 420.65 896.3 420.05 895.5 420.05 895 420.05 894.5 420.35 894.2 420.85 894.1 420.95 894.1 421.05 894.1 421.25 894.1 422.35 894.6 423.15 895.5 423.15 896.3 423.05 896.8 422.45 896.8 421.55Z" fill="#666666"/><path d="M685.1 171.45 689.4 166.55 693.8 171.45" stroke="#333333" stroke-linecap="round" stroke-linejoin="round" fill="none"/><path d="M926.6 404.25 931.5 408.55 926.6 412.85" stroke="#333333" stroke-linecap="round" stroke-linejoin="round" fill="none"/><path d="M812.3 194.35 841.3 194.35 841.3 407.85 812.3 407.85Z" fill="#FF0000"/><path d="M846.8 250.85 875.8 250.85 875.8 407.85 846.8 407.85Z" fill="#FF0000"/><path d="M881.3 332.85 910.3 332.85 910.3 407.85 881.3 407.85Z" fill="#FF0000"/><path d="M743.3 297.35 772.3 297.35 772.3 407.85 743.3 407.85Z" fill="#FF0000"/><path d="M708.8 360.35 737.8 360.35 737.8 407.85 708.8 407.85Z" fill="#FF0000"/><path d="M777.8 217.35 806.8 217.35 806.8 407.85 777.8 407.85Z" fill="#FF0000"/><path d="M653.9 144.75C653 146.05 652.3 147.75 652.3 150.05 652.3 152.35 653 154.05 653.9 155.35L653 155.35C652.2 154.25 651.3 152.65 651.3 150.05 651.3 147.45 652.2 145.85 653 144.75L653.9 144.75Z" fill="#333333"/><path d="M655.5 144.95 660.2 144.95 660.2 145.85 656.6 145.85 656.6 148.75 659.9 148.75 659.9 149.65 656.6 149.65 656.6 153.65 655.5 153.65 655.5 144.95Z" fill="#333333"/><path d="M661.8 149.45C661.8 148.75 661.8 148.05 661.7 147.45L662.7 147.45 662.7 148.65 662.8 148.65C663.1 147.85 663.8 147.25 664.5 147.25 664.6 147.25 664.7 147.25 664.8 147.25L664.8 148.35C664.7 148.35 664.6 148.35 664.4 148.35 663.6 148.35 663 148.95 662.9 149.85 662.9 150.05 662.8 150.15 662.8 150.35L662.8 153.75 661.7 153.75 661.7 149.45Z" fill="#333333"/><path d="M666.9 150.85C666.9 152.35 667.9 153.05 669.1 153.05 669.9 153.05 670.4 152.95 670.8 152.75L671 153.55C670.6 153.75 669.9 153.95 668.9 153.95 667 153.95 665.8 152.65 665.8 150.75 665.8 148.85 666.9 147.35 668.8 147.35 670.9 147.35 671.4 149.15 671.4 150.35 671.4 150.55 671.4 150.75 671.4 150.85L666.9 150.85ZM670.2 149.95C670.2 149.25 669.9 148.05 668.6 148.05 667.4 148.05 666.9 149.15 666.8 149.95L670.2 149.95Z" fill="#333333"/><path d="M677.5 153.55C677.2 153.75 676.5 153.95 675.7 153.95 673.8 153.95 672.6 152.65 672.6 150.75 672.6 148.85 673.9 147.45 676 147.45 676.7 147.45 677.3 147.65 677.6 147.75L677.3 148.65C677 148.35 676.6 148.25 676 148.25 674.6 148.25 673.8 149.35 673.8 150.65 673.8 152.15 674.7 153.05 676 153.05 676.7 153.05 677.1 152.85 677.4 152.75L677.5 153.55Z" fill="#333333"/><path d="M684.5 152.05C684.5 152.65 684.5 153.25 684.6 153.75L683.6 153.75 683.5 152.75 683.5 152.75C683.2 153.25 682.5 153.95 681.4 153.95 680.4 153.95 679.2 153.45 679.2 151.15L679.2 147.45 680.3 147.45 680.3 150.95C680.3 152.15 680.7 152.95 681.7 152.95 682.5 152.95 683 152.45 683.2 151.95 683.3 151.75 683.3 151.55 683.3 151.35L683.3 147.45 684.4 147.45 684.4 152.05Z" fill="#333333"/><path d="M687.3 150.85C687.3 152.35 688.3 153.05 689.5 153.05 690.3 153.05 690.8 152.95 691.2 152.75L691.4 153.55C691 153.75 690.3 153.95 689.3 153.95 687.4 153.95 686.2 152.65 686.2 150.75 686.2 148.85 687.3 147.35 689.2 147.35 691.3 147.35 691.8 149.15 691.8 150.35 691.8 150.55 691.8 150.75 691.8 150.85L687.3 150.85ZM690.7 149.95C690.7 149.25 690.4 148.05 689.1 148.05 687.9 148.05 687.4 149.15 687.3 149.95L690.7 149.95Z" fill="#333333"/><path d="M693.5 149.15C693.5 148.55 693.5 147.95 693.4 147.45L694.4 147.45 694.5 148.45 694.5 148.45C694.8 147.85 695.5 147.25 696.6 147.25 697.5 147.25 698.8 147.75 698.8 149.95L698.8 153.75 697.7 153.75 697.7 150.15C697.7 149.15 697.3 148.25 696.2 148.25 695.4 148.25 694.9 148.75 694.7 149.45 694.6 149.55 694.6 149.75 694.6 149.95L694.6 153.75 693.5 153.75 693.5 149.15Z" fill="#333333"/><path d="M705.6 153.55C705.3 153.75 704.6 153.95 703.8 153.95 701.9 153.95 700.7 152.65 700.7 150.75 700.7 148.85 702 147.45 704.1 147.45 704.8 147.45 705.4 147.65 705.7 147.75L705.4 148.65C705.1 148.35 704.6 148.25 704 148.25 702.6 148.25 701.8 149.35 701.8 150.65 701.8 152.15 702.7 153.05 704 153.05 704.7 153.05 705.1 152.85 705.4 152.75L705.6 153.55Z" fill="#333333"/><path d="M708.5 145.65C708.5 146.05 708.2 146.35 707.8 146.35 707.4 146.35 707.1 146.05 707.1 145.65 707.1 145.25 707.4 144.95 707.8 144.95 708.2 144.95 708.5 145.25 708.5 145.65ZM707.2 153.75 707.2 147.45 708.3 147.45 708.3 153.75 707.2 153.75Z" fill="#333333"/><path d="M714.1 153.75 714 152.95 714 152.95C713.6 153.45 713 153.85 712.1 153.85 710.8 153.85 710.2 152.95 710.2 152.05 710.2 150.55 711.6 149.65 714 149.75L714 149.65C714 149.15 713.9 148.15 712.6 148.15 712 148.15 711.4 148.35 711 148.65L710.7 147.85C711.2 147.55 712 147.25 712.8 147.25 714.7 147.25 715.2 148.55 715.2 149.85L715.2 152.25C715.2 152.75 715.2 153.35 715.3 153.75L714.1 153.75ZM713.9 150.55C712.7 150.55 711.2 150.75 711.2 151.95 711.2 152.65 711.7 153.05 712.3 153.05 713.1 153.05 713.6 152.55 713.8 151.95 713.8 151.85 713.9 151.75 713.9 151.55L713.9 150.55Z" fill="#333333"/><path d="M717 152.55C717.3 152.75 717.9 153.05 718.5 153.05 719.3 153.05 719.7 152.65 719.7 152.15 719.7 151.65 719.4 151.35 718.5 150.95 717.4 150.55 716.8 149.95 716.8 149.15 716.8 148.15 717.6 147.35 719 147.35 719.6 147.35 720.2 147.55 720.5 147.75L720.2 148.55C720 148.35 719.5 148.15 718.9 148.15 718.2 148.15 717.8 148.55 717.8 149.05 717.8 149.55 718.2 149.85 719 150.15 720.1 150.55 720.7 151.15 720.7 152.05 720.7 153.15 719.8 153.95 718.3 153.95 717.6 153.95 717 153.75 716.5 153.55L717 152.55Z" fill="#333333"/><path d="M722 155.35C722.9 154.05 723.6 152.35 723.6 150.05 723.6 147.75 722.9 146.05 722 144.75L722.9 144.75C723.7 145.85 724.6 147.45 724.6 150.05 724.6 152.55 723.7 154.25 722.9 155.35L722 155.35Z" fill="#333333"/><path d="M742.8 165.95 741.9 168.75 740.7 168.75 743.7 159.95 745.1 159.95 748.1 168.75 746.9 168.75 746 165.95 742.8 165.95ZM745.6 165.15 744.7 162.65C744.5 162.05 744.4 161.55 744.2 161.05L744.2 161.05C744.1 161.55 743.9 162.15 743.8 162.65L742.9 165.15 745.6 165.15Z" fill="#333333"/><path d="M749.6 159.55 750.7 159.55 750.7 168.75 749.6 168.75 749.6 159.55Z" fill="#333333"/><path d="M754.3 160.65 754.3 162.45 755.9 162.45 755.9 163.35 754.3 163.35 754.3 166.75C754.3 167.55 754.5 167.95 755.2 167.95 755.5 167.95 755.7 167.95 755.9 167.85L756 168.75C755.8 168.85 755.4 168.95 755 168.95 754.5 168.95 754 168.75 753.8 168.45 753.5 168.15 753.4 167.55 753.4 166.85L753.4 163.45 752.4 163.45 752.4 162.55 753.4 162.55 753.4 161.05 754.3 160.65Z" fill="#333333"/><path d="M762.8 167.05C762.8 167.65 762.8 168.25 762.9 168.75L761.9 168.75 761.8 167.75 761.8 167.75C761.5 168.25 760.8 168.95 759.7 168.95 758.7 168.95 757.5 168.45 757.5 166.15L757.5 162.45 758.6 162.45 758.6 165.95C758.6 167.15 759 167.95 760 167.95 760.8 167.95 761.3 167.45 761.5 166.95 761.6 166.75 761.6 166.55 761.6 166.35L761.6 162.45 762.7 162.45 762.7 167.05Z" fill="#333333"/><path d="M765.1 164.45C765.1 163.75 765.1 163.05 765 162.45L766 162.45 766 163.65 766.1 163.65C766.4 162.85 767.1 162.25 767.8 162.25 767.9 162.25 768 162.25 768.1 162.25L768.1 163.35C768 163.35 767.9 163.35 767.7 163.35 766.9 163.35 766.3 163.95 766.2 164.85 766.2 165.05 766.1 165.15 766.1 165.35L766.1 168.75 765 168.75 765 164.45Z" fill="#333333"/><path d="M773.1 168.75 773 167.95 773 167.95C772.6 168.45 772 168.85 771.1 168.85 769.8 168.85 769.2 167.95 769.2 167.05 769.2 165.55 770.6 164.65 773 164.75L773 164.65C773 164.15 772.9 163.15 771.6 163.15 771 163.15 770.4 163.35 770 163.65L769.7 162.85C770.2 162.55 771 162.25 771.8 162.25 773.7 162.25 774.2 163.55 774.2 164.85L774.2 167.25C774.2 167.75 774.2 168.35 774.3 168.75L773.1 168.75ZM772.9 165.55C771.7 165.55 770.2 165.75 770.2 166.95 770.2 167.65 770.7 168.05 771.3 168.05 772.1 168.05 772.6 167.55 772.8 166.95 772.8 166.85 772.9 166.75 772.9 166.55L772.9 165.55Z" fill="#333333"/><path d="M784.7 159.55 784.7 167.15C784.7 167.75 784.7 168.35 784.8 168.75L783.8 168.75 783.7 167.65 783.7 167.65C783.3 168.35 782.6 168.85 781.6 168.85 780.1 168.85 778.9 167.55 778.9 165.65 778.9 163.55 780.2 162.25 781.7 162.25 782.7 162.25 783.3 162.75 783.6 163.25L783.6 163.25 783.6 159.45 784.7 159.45ZM783.5 165.05C783.5 164.95 783.5 164.75 783.4 164.55 783.2 163.85 782.6 163.25 781.7 163.25 780.5 163.25 779.8 164.25 779.8 165.65 779.8 166.95 780.4 167.95 781.7 167.95 782.5 167.95 783.2 167.45 783.4 166.55 783.4 166.35 783.5 166.25 783.5 166.05L783.5 165.05Z" fill="#333333"/><path d="M787.5 165.85C787.5 167.35 788.5 168.05 789.7 168.05 790.5 168.05 791 167.95 791.4 167.75L791.6 168.55C791.2 168.75 790.5 168.95 789.5 168.95 787.6 168.95 786.4 167.65 786.4 165.75 786.4 163.85 787.5 162.35 789.4 162.35 791.5 162.35 792 164.15 792 165.35 792 165.55 792 165.75 792 165.85L787.5 165.85ZM790.9 164.95C790.9 164.25 790.6 163.05 789.3 163.05 788.1 163.05 787.6 164.15 787.5 164.95L790.9 164.95Z" fill="#333333"/><path d="M796.8 159.55 797.9 159.55 797.9 168.75 796.8 168.75 796.8 159.55Z" fill="#333333"/><path d="M803.7 168.75 803.6 167.95 803.6 167.95C803.2 168.45 802.6 168.85 801.7 168.85 800.4 168.85 799.8 167.95 799.8 167.05 799.8 165.55 801.2 164.65 803.6 164.75L803.6 164.65C803.6 164.15 803.5 163.15 802.2 163.15 801.6 163.15 801 163.35 800.6 163.65L800.3 162.85C800.8 162.55 801.6 162.25 802.4 162.25 804.3 162.25 804.8 163.55 804.8 164.85L804.8 167.25C804.8 167.75 804.8 168.35 804.9 168.75L803.7 168.75ZM803.5 165.55C802.3 165.55 800.8 165.75 800.8 166.95 800.8 167.65 801.3 168.05 801.9 168.05 802.7 168.05 803.2 167.55 803.4 166.95 803.4 166.85 803.5 166.75 803.5 166.55L803.5 165.55Z" fill="#333333"/><path d="M809.8 168.75C809.8 168.35 809.9 167.65 809.9 167.15L809.9 159.55 811 159.55 811 163.55 811 163.55C811.4 162.85 812.1 162.35 813.1 162.35 814.7 162.35 815.8 163.65 815.8 165.55 815.8 167.75 814.4 168.95 813 168.95 812.1 168.95 811.4 168.55 810.9 167.75L810.9 167.75 810.8 168.75 809.8 168.75ZM811 166.25C811 166.35 811 166.55 811.1 166.65 811.3 167.45 812 167.95 812.8 167.95 814 167.95 814.7 166.95 814.7 165.55 814.7 164.25 814 163.25 812.8 163.25 812 163.25 811.3 163.75 811.1 164.65 811.1 164.75 811 164.95 811 165.15L811 166.25Z" fill="#333333"/><path d="M821.1 168.75 821 167.95 821 167.95C820.6 168.45 820 168.85 819.1 168.85 817.8 168.85 817.2 167.95 817.2 167.05 817.2 165.55 818.6 164.65 821 164.75L821 164.65C821 164.15 820.9 163.15 819.6 163.15 819 163.15 818.4 163.35 818 163.65L817.7 162.85C818.2 162.55 819 162.25 819.8 162.25 821.7 162.25 822.2 163.55 822.2 164.85L822.2 167.25C822.2 167.75 822.2 168.35 822.3 168.75L821.1 168.75ZM820.9 165.55C819.7 165.55 818.2 165.75 818.2 166.95 818.2 167.65 818.7 168.05 819.3 168.05 820.1 168.05 820.6 167.55 820.8 166.95 820.8 166.85 820.9 166.75 820.9 166.55L820.9 165.55Z" fill="#333333"/><path d="M824.2 164.45C824.2 163.75 824.2 163.05 824.1 162.45L825.1 162.45 825.1 163.65 825.2 163.65C825.5 162.85 826.2 162.25 826.9 162.25 827 162.25 827.1 162.25 827.2 162.25L827.2 163.35C827.1 163.35 827 163.35 826.8 163.35 826 163.35 825.4 163.95 825.3 164.85 825.3 165.05 825.2 165.15 825.2 165.35L825.2 168.75 824.1 168.75 824.1 164.45Z" fill="#333333"/><path d="M828.8 164.45C828.8 163.75 828.8 163.05 828.7 162.45L829.7 162.45 829.7 163.65 829.8 163.65C830.1 162.85 830.8 162.25 831.5 162.25 831.6 162.25 831.7 162.25 831.8 162.25L831.8 163.35C831.7 163.35 831.6 163.35 831.4 163.35 830.6 163.35 830 163.95 829.9 164.85 829.9 165.05 829.8 165.15 829.8 165.35L829.8 168.75 828.7 168.75 828.7 164.45Z" fill="#333333"/><path d="M836.8 168.75 836.7 167.95 836.7 167.95C836.3 168.45 835.7 168.85 834.8 168.85 833.5 168.85 832.9 167.95 832.9 167.05 832.9 165.55 834.3 164.65 836.7 164.75L836.7 164.65C836.7 164.15 836.6 163.15 835.3 163.15 834.7 163.15 834.1 163.35 833.7 163.65L833.4 162.85C833.9 162.55 834.7 162.25 835.5 162.25 837.4 162.25 837.9 163.55 837.9 164.85L837.9 167.25C837.9 167.75 837.9 168.35 838 168.75L836.8 168.75ZM836.7 165.55C835.5 165.55 834 165.75 834 166.95 834 167.65 834.5 168.05 835.1 168.05 835.9 168.05 836.4 167.55 836.6 166.95 836.6 166.85 836.7 166.75 836.7 166.55L836.7 165.55Z" fill="#333333"/><path d="M842.6 164.35 842.6 163.55 849.3 163.55 849.3 164.35 842.6 164.35ZM842.6 166.95 842.6 166.15 849.3 166.15 849.3 166.95 842.6 166.95Z" fill="#333333"/><path d="M854.2 159.95 858.9 159.95 858.9 160.85 855.3 160.85 855.3 163.75 858.6 163.75 858.6 164.65 855.3 164.65 855.3 168.65 854.2 168.65 854.2 159.95Z" fill="#333333"/><path d="M860.5 164.45C860.5 163.75 860.5 163.05 860.4 162.45L861.4 162.45 861.4 163.65 861.5 163.65C861.8 162.85 862.5 162.25 863.2 162.25 863.3 162.25 863.4 162.25 863.5 162.25L863.5 163.35C863.4 163.35 863.3 163.35 863.1 163.35 862.3 163.35 861.7 163.95 861.6 164.85 861.6 165.05 861.5 165.15 861.5 165.35L861.5 168.75 860.4 168.75 860.4 164.45Z" fill="#333333"/><path d="M865.6 165.85C865.6 167.35 866.6 168.05 867.8 168.05 868.6 168.05 869.1 167.95 869.5 167.75L869.7 168.55C869.3 168.75 868.6 168.95 867.6 168.95 865.7 168.95 864.5 167.65 864.5 165.75 864.5 163.85 865.6 162.35 867.5 162.35 869.6 162.35 870.1 164.15 870.1 165.35 870.1 165.55 870.1 165.75 870.1 165.85L865.6 165.85ZM868.9 164.95C868.9 164.25 868.6 163.05 867.3 163.05 866.1 163.05 865.6 164.15 865.5 164.95L868.9 164.95Z" fill="#333333"/><path d="M876.3 168.55C876 168.75 875.3 168.95 874.5 168.95 872.6 168.95 871.4 167.65 871.4 165.75 871.4 163.85 872.7 162.45 874.8 162.45 875.5 162.45 876.1 162.65 876.4 162.75L876.1 163.65C875.8 163.45 875.4 163.35 874.8 163.35 873.4 163.35 872.6 164.45 872.6 165.75 872.6 167.25 873.5 168.15 874.8 168.15 875.5 168.15 875.9 167.95 876.2 167.85L876.3 168.55Z" fill="#333333"/><path d="M883.2 167.05C883.2 167.65 883.2 168.25 883.3 168.75L882.3 168.75 882.2 167.75 882.2 167.75C881.9 168.25 881.2 168.95 880.1 168.95 879.1 168.95 877.9 168.45 877.9 166.15L877.9 162.45 879 162.45 879 165.95C879 167.15 879.4 167.95 880.4 167.95 881.2 167.95 881.7 167.45 881.9 166.95 882 166.75 882 166.55 882 166.35L882 162.45 883.1 162.45 883.1 167.05Z" fill="#333333"/><path d="M886 165.85C886 167.35 887 168.05 888.2 168.05 889 168.05 889.5 167.95 889.9 167.75L890.1 168.55C889.7 168.75 889 168.95 888 168.95 886.1 168.95 884.9 167.65 884.9 165.75 884.9 163.85 886 162.35 887.9 162.35 890 162.35 890.5 164.15 890.5 165.35 890.5 165.55 890.5 165.75 890.5 165.85L886 165.85ZM889.4 164.95C889.4 164.25 889.1 163.05 887.8 163.05 886.6 163.05 886.1 164.15 886 164.95L889.4 164.95Z" fill="#333333"/><path d="M892.2 164.15C892.2 163.55 892.2 162.95 892.1 162.45L893.1 162.45 893.2 163.45 893.2 163.45C893.5 162.85 894.2 162.25 895.3 162.25 896.2 162.25 897.5 162.75 897.5 164.95L897.5 168.75 896.4 168.75 896.4 165.15C896.4 164.15 896 163.25 894.9 163.25 894.1 163.25 893.6 163.75 893.4 164.45 893.3 164.55 893.3 164.75 893.3 164.95L893.3 168.75 892.2 168.75 892.2 164.15Z" fill="#333333"/><path d="M904.3 168.55C904 168.75 903.3 168.95 902.5 168.95 900.6 168.95 899.4 167.65 899.4 165.75 899.4 163.85 900.7 162.45 902.8 162.45 903.5 162.45 904.1 162.65 904.4 162.75L904.1 163.65C903.8 163.45 903.4 163.35 902.8 163.35 901.4 163.35 900.6 164.45 900.6 165.75 900.6 167.25 901.5 168.15 902.8 168.15 903.5 168.15 903.9 167.95 904.2 167.85L904.3 168.55Z" fill="#333333"/><path d="M907.2 160.65C907.2 161.05 906.9 161.35 906.5 161.35 906.1 161.35 905.8 161.05 905.8 160.65 905.8 160.25 906.1 159.95 906.5 159.95 906.9 159.95 907.2 160.25 907.2 160.65ZM905.9 168.75 905.9 162.45 907 162.45 907 168.75 905.9 168.75Z" fill="#333333"/><path d="M912.8 168.75 912.7 167.95 912.7 167.95C912.3 168.45 911.7 168.85 910.8 168.85 909.5 168.85 908.9 167.95 908.9 167.05 908.9 165.55 910.3 164.65 912.7 164.75L912.7 164.65C912.7 164.15 912.6 163.15 911.3 163.15 910.7 163.15 910.1 163.35 909.7 163.65L909.4 162.85C909.9 162.55 910.7 162.25 911.5 162.25 913.4 162.25 913.9 163.55 913.9 164.85L913.9 167.25C913.9 167.75 913.9 168.35 914 168.75L912.8 168.75ZM912.6 165.55C911.4 165.55 909.9 165.75 909.9 166.95 909.9 167.65 910.4 168.05 911 168.05 911.8 168.05 912.3 167.55 912.5 166.95 912.5 166.85 912.6 166.75 912.6 166.55L912.6 165.55Z" fill="#333333"/><path d="M739.7 180.15C739.7 179.35 739.7 178.65 739.6 178.05L740.6 178.05 740.7 179.15 740.7 179.15C741.2 178.35 741.9 177.95 742.9 177.95 744.4 177.95 745.6 179.25 745.6 181.15 745.6 183.45 744.2 184.55 742.7 184.55 741.9 184.55 741.1 184.15 740.8 183.55L740.8 183.55 740.8 186.95 739.7 186.95 739.7 180.15ZM740.8 181.75C740.8 181.95 740.8 182.05 740.9 182.25 741.1 183.05 741.8 183.55 742.6 183.55 743.8 183.55 744.5 182.55 744.5 181.15 744.5 179.85 743.8 178.85 742.6 178.85 741.8 178.85 741.1 179.45 740.9 180.25 740.9 180.35 740.8 180.55 740.8 180.75L740.8 181.75Z" fill="#333333"/><path d="M753.1 181.15C753.1 183.45 751.5 184.45 750 184.45 748.3 184.45 747 183.25 747 181.25 747 179.15 748.4 177.95 750.1 177.95 751.9 177.95 753.1 179.25 753.1 181.15ZM748.1 181.25C748.1 182.65 748.9 183.65 750 183.65 751.1 183.65 751.9 182.65 751.9 181.25 751.9 180.15 751.4 178.85 750 178.85 748.7 178.75 748.1 180.05 748.1 181.25Z" fill="#333333"/><path d="M754.9 180.05C754.9 179.35 754.9 178.65 754.8 178.05L755.8 178.05 755.8 179.25 755.9 179.25C756.2 178.45 756.9 177.85 757.6 177.85 757.7 177.85 757.8 177.85 757.9 177.85L757.9 178.95C757.8 178.95 757.7 178.95 757.5 178.95 756.7 178.95 756.1 179.55 756 180.45 756 180.65 755.9 180.75 755.9 180.95L755.9 184.35 754.8 184.35 754.8 180.05Z" fill="#333333"/><path d="M763.8 176.25C763.8 176.65 763.5 176.95 763.1 176.95 762.7 176.95 762.4 176.65 762.4 176.25 762.4 175.85 762.7 175.55 763.1 175.55 763.5 175.55 763.8 175.85 763.8 176.25ZM762.5 184.35 762.5 178.05 763.6 178.05 763.6 184.35 762.5 184.35Z" fill="#333333"/><path d="M765.9 179.75C765.9 179.15 765.9 178.55 765.8 178.05L766.8 178.05 766.9 179.05 766.9 179.05C767.2 178.45 767.9 177.85 769 177.85 769.9 177.85 771.2 178.35 771.2 180.55L771.2 184.35 770.1 184.35 770.1 180.75C770.1 179.75 769.7 178.85 768.6 178.85 767.8 178.85 767.3 179.35 767.1 180.05 767 180.15 767 180.35 767 180.55L767 184.35 765.9 184.35 765.9 179.75Z" fill="#333333"/><path d="M774.8 176.25 774.8 178.05 776.4 178.05 776.4 178.95 774.8 178.95 774.8 182.35C774.8 183.15 775 183.55 775.7 183.55 776 183.55 776.2 183.55 776.4 183.45L776.5 184.35C776.3 184.45 775.9 184.55 775.5 184.55 775 184.55 774.5 184.35 774.3 184.05 774 183.75 773.9 183.15 773.9 182.45L773.9 179.05 772.9 179.05 772.9 178.15 773.9 178.15 773.9 176.65 774.8 176.25Z" fill="#333333"/><path d="M778.6 181.45C778.6 182.95 779.6 183.65 780.8 183.65 781.6 183.65 782.1 183.55 782.5 183.35L782.7 184.15C782.3 184.35 781.6 184.55 780.6 184.55 778.7 184.55 777.5 183.25 777.5 181.35 777.5 179.45 778.6 177.95 780.5 177.95 782.6 177.95 783.1 179.75 783.1 180.95 783.1 181.15 783.1 181.35 783.1 181.45L778.6 181.45ZM781.9 180.55C781.9 179.85 781.6 178.65 780.3 178.65 779.1 178.65 778.6 179.75 778.5 180.55L781.9 180.55Z" fill="#333333"/><path d="M784.8 180.05C784.8 179.35 784.8 178.65 784.7 178.05L785.7 178.05 785.7 179.25 785.8 179.25C786.1 178.45 786.8 177.85 787.5 177.85 787.6 177.85 787.7 177.85 787.8 177.85L787.8 178.95C787.7 178.95 787.6 178.95 787.4 178.95 786.6 178.95 786 179.55 785.9 180.45 785.9 180.65 785.8 180.75 785.8 180.95L785.8 184.35 784.7 184.35 784.7 180.05Z" fill="#333333"/><path d="M790.1 178.05 791.3 181.55C791.5 182.15 791.7 182.65 791.8 183.15L791.8 183.15C791.9 182.65 792.1 182.15 792.3 181.55L793.5 178.05 794.7 178.05 792.2 184.35 791.1 184.35 788.7 178.05 790.1 178.05Z" fill="#333333"/><path d="M799.7 184.35 799.6 183.55 799.6 183.55C799.2 184.05 798.6 184.45 797.7 184.45 796.4 184.45 795.8 183.55 795.8 182.65 795.8 181.15 797.2 180.25 799.6 180.35L799.6 180.25C799.6 179.75 799.5 178.75 798.2 178.75 797.6 178.75 797 178.95 796.6 179.25L796.3 178.45C796.8 178.15 797.6 177.85 798.4 177.85 800.3 177.85 800.8 179.15 800.8 180.45L800.8 182.85C800.8 183.35 800.8 183.95 800.9 184.35L799.7 184.35ZM799.5 181.15C798.3 181.15 796.8 181.35 796.8 182.55 796.8 183.25 797.3 183.65 797.9 183.65 798.7 183.65 799.2 183.15 799.4 182.55 799.4 182.45 799.5 182.35 799.5 182.15L799.5 181.15Z" fill="#333333"/><path d="M802.8 175.15 803.9 175.15 803.9 184.35 802.8 184.35 802.8 175.15Z" fill="#333333"/><path d="M811.9 181.15C811.9 183.45 810.3 184.45 808.8 184.45 807.1 184.45 805.8 183.25 805.8 181.25 805.8 179.15 807.2 177.95 808.9 177.95 810.7 177.95 811.9 179.25 811.9 181.15ZM806.9 181.25C806.9 182.65 807.7 183.65 808.8 183.65 809.9 183.65 810.7 182.65 810.7 181.25 810.7 180.15 810.2 178.85 808.8 178.85 807.5 178.75 806.9 180.05 806.9 181.25Z" fill="#333333"/><path d="M818 176.25C818 176.65 817.7 176.95 817.3 176.95 816.9 176.95 816.6 176.65 816.6 176.25 816.6 175.85 816.9 175.55 817.3 175.55 817.7 175.55 818 175.85 818 176.25ZM816.7 184.35 816.7 178.05 817.8 178.05 817.8 184.35 816.7 184.35Z" fill="#333333"/><path d="M820.1 179.75C820.1 179.15 820.1 178.55 820 178.05L821 178.05 821.1 179.05 821.1 179.05C821.4 178.45 822.1 177.85 823.2 177.85 824.1 177.85 825.4 178.35 825.4 180.55L825.4 184.35 824.3 184.35 824.3 180.75C824.3 179.75 823.9 178.85 822.8 178.85 822 178.85 821.5 179.35 821.3 180.05 821.2 180.15 821.2 180.35 821.2 180.55L821.2 184.35 820.1 184.35 820.1 179.75Z" fill="#333333"/><path d="M833.1 175.15 833.1 182.75C833.1 183.35 833.1 183.95 833.2 184.35L832.2 184.35 832 183.25 832 183.25C831.6 183.95 830.9 184.45 829.9 184.45 828.4 184.45 827.2 183.15 827.2 181.25 827.2 179.15 828.5 177.85 830 177.85 831 177.85 831.6 178.35 831.9 178.85L831.9 178.85 831.9 175.05 833.1 175.05ZM831.9 180.65C831.9 180.55 831.9 180.35 831.8 180.15 831.6 179.45 831 178.85 830.1 178.85 828.9 178.85 828.2 179.85 828.2 181.25 828.2 182.55 828.8 183.55 830.1 183.55 830.9 183.55 831.6 183.05 831.8 182.15 831.8 181.95 831.9 181.85 831.9 181.65L831.9 180.65Z" fill="#333333"/><path d="M836.6 176.25C836.6 176.65 836.3 176.95 835.9 176.95 835.5 176.95 835.2 176.65 835.2 176.25 835.2 175.85 835.5 175.55 835.9 175.55 836.3 175.55 836.6 175.85 836.6 176.25ZM835.3 184.35 835.3 178.05 836.4 178.05 836.4 184.35 835.3 184.35Z" fill="#333333"/><path d="M839.1 178.05 840.3 181.55C840.5 182.15 840.7 182.65 840.8 183.15L840.8 183.15C840.9 182.65 841.1 182.15 841.3 181.55L842.5 178.05 843.7 178.05 841.2 184.35 840.1 184.35 837.7 178.05 839.1 178.05Z" fill="#333333"/><path d="M846.5 176.25C846.5 176.65 846.2 176.95 845.8 176.95 845.4 176.95 845.1 176.65 845.1 176.25 845.1 175.85 845.4 175.55 845.8 175.55 846.2 175.55 846.5 175.85 846.5 176.25ZM845.2 184.35 845.2 178.05 846.3 178.05 846.3 184.35 845.2 184.35Z" fill="#333333"/><path d="M854 175.15 854 182.75C854 183.35 854 183.95 854.1 184.35L853.1 184.35 853 183.25 853 183.25C852.6 183.95 851.9 184.45 850.9 184.45 849.4 184.45 848.2 183.15 848.2 181.25 848.2 179.15 849.5 177.85 851 177.85 852 177.85 852.6 178.35 852.9 178.85L852.9 178.85 852.9 175.05 854 175.05ZM852.9 180.65C852.9 180.55 852.9 180.35 852.8 180.15 852.6 179.45 852 178.85 851.1 178.85 849.9 178.85 849.2 179.85 849.2 181.25 849.2 182.55 849.8 183.55 851.1 183.55 851.9 183.55 852.6 183.05 852.8 182.15 852.8 181.95 852.9 181.85 852.9 181.65L852.9 180.65Z" fill="#333333"/><path d="M861.5 182.65C861.5 183.35 861.5 183.85 861.6 184.35L860.6 184.35 860.5 183.35 860.5 183.35C860.2 183.85 859.5 184.55 858.4 184.55 857.4 184.55 856.2 184.05 856.2 181.75L856.2 178.05 857.3 178.05 857.3 181.55C857.3 182.75 857.7 183.55 858.7 183.55 859.5 183.55 860 183.05 860.2 182.55 860.3 182.35 860.3 182.15 860.3 181.95L860.3 178.05 861.4 178.05 861.4 182.65Z" fill="#333333"/><path d="M867.2 184.35 867.1 183.55 867.1 183.55C866.7 184.05 866.1 184.45 865.2 184.45 863.9 184.45 863.3 183.55 863.3 182.65 863.3 181.15 864.7 180.25 867.1 180.35L867.1 180.25C867.1 179.75 867 178.75 865.7 178.75 865.1 178.75 864.5 178.95 864.1 179.25L863.8 178.45C864.3 178.15 865.1 177.85 865.9 177.85 867.8 177.85 868.3 179.15 868.3 180.45L868.3 182.85C868.3 183.35 868.3 183.95 868.4 184.35L867.2 184.35ZM867.1 181.15C865.9 181.15 864.4 181.35 864.4 182.55 864.4 183.25 864.9 183.65 865.5 183.65 866.3 183.65 866.8 183.15 867 182.55 867 182.45 867.1 182.35 867.1 182.15L867.1 181.15Z" fill="#333333"/><path d="M870.3 175.15 871.4 175.15 871.4 184.35 870.3 184.35 870.3 175.15Z" fill="#333333"/><path d="M882.5 181.15C882.5 183.45 880.9 184.45 879.4 184.45 877.7 184.45 876.4 183.25 876.4 181.25 876.4 179.15 877.8 177.95 879.5 177.95 881.3 177.95 882.5 179.25 882.5 181.15ZM877.5 181.25C877.5 182.65 878.3 183.65 879.4 183.65 880.5 183.65 881.3 182.65 881.3 181.25 881.3 180.15 880.8 178.85 879.4 178.85 878.1 178.75 877.5 180.05 877.5 181.25Z" fill="#333333"/><path d="M887.7 181.05 889.4 183.45 888.5 183.45 886.8 181.05 888.5 178.65 889.4 178.65 887.7 181.05ZM889.8 181.05 891.5 183.45 890.6 183.45 888.9 181.05 890.6 178.65 891.5 178.65 889.8 181.05Z" fill="#333333"/><path d="M893.1 184.35C893.1 183.95 893.2 183.25 893.2 182.75L893.2 175.15 894.3 175.15 894.3 179.15 894.3 179.15C894.7 178.45 895.4 177.95 896.4 177.95 898 177.95 899.1 179.25 899.1 181.15 899.1 183.35 897.7 184.55 896.3 184.55 895.4 184.55 894.7 184.15 894.2 183.35L894.2 183.35 894.1 184.35 893.1 184.35ZM894.3 181.85C894.3 181.95 894.3 182.15 894.4 182.25 894.6 183.05 895.3 183.55 896.1 183.55 897.3 183.55 898 182.55 898 181.15 898 179.85 897.3 178.85 896.1 178.85 895.3 178.85 894.6 179.35 894.4 180.25 894.4 180.35 894.3 180.55 894.3 180.75L894.3 181.85Z" fill="#333333"/><path d="M902.1 176.25C902.1 176.65 901.8 176.95 901.4 176.95 901 176.95 900.7 176.65 900.7 176.25 900.7 175.85 901 175.55 901.4 175.55 901.8 175.55 902.1 175.85 902.1 176.25ZM900.8 184.35 900.8 178.05 901.9 178.05 901.9 184.35 900.8 184.35Z" fill="#333333"/><path d="M904.2 179.75C904.2 179.15 904.2 178.55 904.1 178.05L905.1 178.05 905.2 179.05 905.2 179.05C905.5 178.45 906.2 177.85 907.3 177.85 908.2 177.85 909.5 178.35 909.5 180.55L909.5 184.35 908.4 184.35 908.4 180.75C908.4 179.75 908 178.85 906.9 178.85 906.1 178.85 905.6 179.35 905.4 180.05 905.3 180.15 905.3 180.35 905.3 180.55L905.3 184.35 904.2 184.35 904.2 179.75Z" fill="#333333"/><path d="M911.1 178.65 912 178.65 913.7 181.05 912 183.45 911.1 183.45 912.8 181.05 911.1 178.65ZM913.2 178.65 914.1 178.65 915.8 181.05 914.1 183.45 913.2 183.45 914.9 181.05 913.2 178.65Z" fill="#333333"/><path d="M721.6 433.75C720.7 435.05 720 436.75 720 439.05 720 441.35 720.7 443.05 721.6 444.35L720.7 444.35C719.9 443.25 719 441.65 719 439.05 719 436.45 719.9 434.85 720.7 433.75L721.6 433.75Z" fill="#333333"/><path d="M724.3 433.95 724.3 442.75 723.2 442.75 723.2 433.95 724.3 433.95Z" fill="#333333"/><path d="M726.7 438.15C726.7 437.45 726.7 436.95 726.6 436.45L727.6 436.45 727.7 437.45 727.7 437.45C728 436.85 728.7 436.25 729.8 436.25 730.7 436.25 732 436.75 732 438.95L732 442.75 731 442.75 731 439.15C731 438.15 730.6 437.25 729.5 437.25 728.7 437.25 728.2 437.75 728 438.45 727.9 438.55 727.9 438.75 727.9 438.95L727.9 442.75 726.8 442.75 726.8 438.15Z" fill="#333333"/><path d="M735.6 434.65 735.6 436.45 737.2 436.45 737.2 437.35 735.6 437.35 735.6 440.75C735.6 441.55 735.8 441.95 736.5 441.95 736.8 441.95 737 441.95 737.2 441.85L737.3 442.75C737.1 442.85 736.7 442.95 736.3 442.95 735.8 442.95 735.3 442.75 735.1 442.45 734.8 442.15 734.7 441.55 734.7 440.85L734.7 437.45 733.7 437.45 733.7 436.55 734.7 436.55 734.7 435.05 735.6 434.65Z" fill="#333333"/><path d="M739.4 439.85C739.4 441.35 740.4 442.05 741.6 442.05 742.4 442.05 742.9 441.95 743.3 441.75L743.5 442.55C743.1 442.75 742.4 442.95 741.4 442.95 739.5 442.95 738.3 441.65 738.3 439.75 738.3 437.85 739.4 436.35 741.3 436.35 743.4 436.35 743.9 438.15 743.9 439.35 743.9 439.55 743.9 439.75 743.9 439.85L739.4 439.85ZM742.8 438.95C742.8 438.25 742.5 437.05 741.2 437.05 740 437.05 739.5 438.15 739.4 438.95L742.8 438.95Z" fill="#333333"/><path d="M745.6 438.45C745.6 437.75 745.6 437.05 745.5 436.45L746.5 436.45 746.5 437.65 746.6 437.65C746.9 436.85 747.6 436.25 748.3 436.25 748.4 436.25 748.5 436.25 748.6 436.25L748.6 437.35C748.5 437.35 748.4 437.35 748.2 437.35 747.4 437.35 746.8 437.95 746.7 438.85 746.7 439.05 746.6 439.15 746.6 439.35L746.6 442.75 745.5 442.75 745.5 438.45Z" fill="#333333"/><path d="M751 436.45 752.2 439.95C752.4 440.55 752.6 441.05 752.7 441.55L752.7 441.55C752.8 441.05 753 440.55 753.2 439.95L754.4 436.45 755.6 436.45 753.1 442.75 752 442.75 749.6 436.45 751 436.45Z" fill="#333333"/><path d="M760.5 442.75 760.4 441.95 760.4 441.95C760 442.45 759.4 442.85 758.5 442.85 757.2 442.85 756.6 441.95 756.6 441.05 756.6 439.55 758 438.65 760.4 438.75L760.4 438.65C760.4 438.15 760.3 437.15 759 437.15 758.4 437.15 757.8 437.35 757.4 437.65L757.1 436.85C757.6 436.55 758.4 436.25 759.2 436.25 761.1 436.25 761.6 437.55 761.6 438.85L761.6 441.25C761.6 441.75 761.6 442.35 761.7 442.75L760.5 442.75ZM760.4 439.55C759.2 439.55 757.7 439.75 757.7 440.95 757.7 441.65 758.2 442.05 758.8 442.05 759.6 442.05 760.1 441.55 760.3 440.95 760.3 440.85 760.4 440.75 760.4 440.55L760.4 439.55Z" fill="#333333"/><path d="M763.6 433.55 764.7 433.55 764.7 442.75 763.6 442.75 763.6 433.55Z" fill="#333333"/><path d="M772.7 439.55C772.7 441.85 771.1 442.85 769.6 442.85 767.9 442.85 766.6 441.65 766.6 439.65 766.6 437.55 768 436.35 769.7 436.35 771.5 436.35 772.7 437.65 772.7 439.55ZM767.7 439.65C767.7 441.05 768.5 442.05 769.6 442.05 770.7 442.05 771.5 441.05 771.5 439.65 771.5 438.55 771 437.25 769.6 437.25 768.3 437.15 767.7 438.45 767.7 439.65Z" fill="#333333"/><path d="M774.3 441.55C774.6 441.75 775.2 442.05 775.8 442.05 776.6 442.05 777 441.65 777 441.15 777 440.65 776.7 440.35 775.8 439.95 774.7 439.55 774.1 438.95 774.1 438.15 774.1 437.15 774.9 436.35 776.3 436.35 776.9 436.35 777.5 436.55 777.8 436.75L777.5 437.55C777.3 437.35 776.8 437.15 776.2 437.15 775.5 437.15 775.1 437.55 775.1 438.05 775.1 438.55 775.5 438.85 776.3 439.15 777.4 439.55 778 440.15 778 441.05 778 442.15 777.1 442.95 775.6 442.95 774.9 442.95 774.3 442.75 773.8 442.55L774.3 441.55Z" fill="#333333"/><path d="M788.7 439.55C788.7 441.85 787.1 442.85 785.6 442.85 783.9 442.85 782.6 441.65 782.6 439.65 782.6 437.55 784 436.35 785.7 436.35 787.5 436.35 788.7 437.65 788.7 439.55ZM783.7 439.65C783.7 441.05 784.5 442.05 785.6 442.05 786.7 442.05 787.5 441.05 787.5 439.65 787.5 438.55 787 437.25 785.6 437.25 784.3 437.15 783.7 438.45 783.7 439.65Z" fill="#333333"/><path d="M793.6 438.55C793.6 437.75 793.6 437.05 793.5 436.45L794.5 436.45 794.6 437.55 794.6 437.55C795.1 436.75 795.8 436.35 796.8 436.35 798.3 436.35 799.5 437.65 799.5 439.55 799.5 441.85 798.1 442.95 796.6 442.95 795.8 442.95 795 442.55 794.7 441.95L794.7 441.95 794.7 445.35 793.6 445.35 793.6 438.55ZM794.7 440.15C794.7 440.35 794.7 440.45 794.8 440.65 795 441.45 795.7 441.95 796.5 441.95 797.7 441.95 798.4 440.95 798.4 439.55 798.4 438.25 797.7 437.25 796.5 437.25 795.7 437.25 795 437.85 794.8 438.65 794.8 438.75 794.7 438.95 794.7 439.15L794.7 440.15Z" fill="#333333"/><path d="M801.9 439.85C801.9 441.35 802.9 442.05 804.1 442.05 804.9 442.05 805.4 441.95 805.8 441.75L806 442.55C805.6 442.75 804.9 442.95 803.9 442.95 802 442.95 800.8 441.65 800.8 439.75 800.8 437.85 801.9 436.35 803.8 436.35 805.9 436.35 806.4 438.15 806.4 439.35 806.4 439.55 806.4 439.75 806.4 439.85L801.9 439.85ZM805.3 438.95C805.3 438.25 805 437.05 803.7 437.05 802.5 437.05 802 438.15 801.9 438.95L805.3 438.95Z" fill="#333333"/><path d="M808.1 438.45C808.1 437.75 808.1 437.05 808 436.45L809 436.45 809 437.65 809.1 437.65C809.4 436.85 810.1 436.25 810.8 436.25 810.9 436.25 811 436.25 811.1 436.25L811.1 437.35C811 437.35 810.9 437.35 810.7 437.35 809.9 437.35 809.3 437.95 809.2 438.85 809.2 439.05 809.1 439.15 809.1 439.35L809.1 442.75 808 442.75 808 438.45Z" fill="#333333"/><path d="M815.1 433.75 813.5 435.65 812.7 435.65 813.8 433.75 815.1 433.75ZM812.8 442.75 812.8 436.45 813.9 436.45 813.9 442.75 812.8 442.75Z" fill="#333333"/><path d="M821.8 439.55C821.8 441.85 820.2 442.85 818.7 442.85 817 442.85 815.7 441.65 815.7 439.65 815.7 437.55 817.1 436.35 818.8 436.35 820.6 436.35 821.8 437.65 821.8 439.55ZM816.8 439.65C816.8 441.05 817.6 442.05 818.7 442.05 819.8 442.05 820.6 441.05 820.6 439.65 820.6 438.55 820.1 437.25 818.7 437.25 817.4 437.15 816.8 438.45 816.8 439.65Z" fill="#333333"/><path d="M829 433.55 829 441.15C829 441.75 829 442.35 829.1 442.75L828.1 442.75 828 441.65 828 441.65C827.6 442.35 826.9 442.85 825.9 442.85 824.4 442.85 823.2 441.55 823.2 439.65 823.2 437.55 824.5 436.25 826 436.25 827 436.25 827.6 436.75 827.9 437.25L827.9 437.25 827.9 433.45 829 433.45ZM827.9 439.05C827.9 438.95 827.9 438.75 827.8 438.55 827.6 437.85 827 437.25 826.1 437.25 824.9 437.25 824.2 438.25 824.2 439.65 824.2 440.95 824.8 441.95 826.1 441.95 826.9 441.95 827.6 441.45 827.8 440.55 827.8 440.35 827.9 440.25 827.9 440.05L827.9 439.05Z" fill="#333333"/><path d="M837 439.55C837 441.85 835.4 442.85 833.9 442.85 832.2 442.85 830.9 441.65 830.9 439.65 830.9 437.55 832.3 436.35 834 436.35 835.7 436.35 837 437.65 837 439.55ZM832 439.65C832 441.05 832.8 442.05 833.9 442.05 835 442.05 835.8 441.05 835.8 439.65 835.8 438.55 835.3 437.25 833.9 437.25 832.5 437.15 832 438.45 832 439.65Z" fill="#333333"/><path d="M847.2 433.55 847.2 441.15C847.2 441.75 847.2 442.35 847.3 442.75L846.3 442.75 846.2 441.65 846.2 441.65C845.8 442.35 845.1 442.85 844.1 442.85 842.6 442.85 841.4 441.55 841.4 439.65 841.4 437.55 842.7 436.25 844.2 436.25 845.2 436.25 845.8 436.75 846.1 437.25L846.1 437.25 846.1 433.45 847.2 433.45ZM846.1 439.05C846.1 438.95 846.1 438.75 846 438.55 845.8 437.85 845.2 437.25 844.3 437.25 843.1 437.25 842.4 438.25 842.4 439.65 842.4 440.95 843 441.95 844.3 441.95 845.1 441.95 845.8 441.45 846 440.55 846 440.35 846.1 440.25 846.1 440.05L846.1 439.05Z" fill="#333333"/><path d="M850.1 439.85C850.1 441.35 851.1 442.05 852.3 442.05 853.1 442.05 853.6 441.95 854 441.75L854.2 442.55C853.8 442.75 853.1 442.95 852.1 442.95 850.2 442.95 849 441.65 849 439.75 849 437.85 850.1 436.35 852 436.35 854.1 436.35 854.6 438.15 854.6 439.35 854.6 439.55 854.6 439.75 854.6 439.85L850.1 439.85ZM853.5 438.95C853.5 438.25 853.2 437.05 851.9 437.05 850.7 437.05 850.2 438.15 850.1 438.95L853.5 438.95Z" fill="#333333"/><path d="M860.8 434.65 860.8 436.45 862.4 436.45 862.4 437.35 860.8 437.35 860.8 440.75C860.8 441.55 861 441.95 861.7 441.95 862 441.95 862.2 441.95 862.4 441.85L862.5 442.75C862.3 442.85 861.9 442.95 861.5 442.95 861 442.95 860.5 442.75 860.3 442.45 860 442.15 859.9 441.55 859.9 440.85L859.9 437.45 858.9 437.45 858.9 436.55 859.9 436.55 859.9 435.05 860.8 434.65Z" fill="#333333"/><path d="M865.3 434.65C865.3 435.05 865 435.35 864.6 435.35 864.2 435.35 863.9 435.05 863.9 434.65 863.9 434.25 864.2 433.95 864.6 433.95 865 433.95 865.3 434.25 865.3 434.65ZM864 442.75 864 436.45 865.1 436.45 865.1 442.75 864 442.75Z" fill="#333333"/><path d="M868 439.85C868 441.35 869 442.05 870.2 442.05 871 442.05 871.5 441.95 871.9 441.75L872.1 442.55C871.7 442.75 871 442.95 870 442.95 868.1 442.95 866.9 441.65 866.9 439.75 866.9 437.85 868 436.35 869.9 436.35 872 436.35 872.5 438.15 872.5 439.35 872.5 439.55 872.5 439.75 872.5 439.85L868 439.85ZM871.4 438.95C871.4 438.25 871.1 437.05 869.8 437.05 868.6 437.05 868.1 438.15 868 438.95L871.4 438.95Z" fill="#333333"/><path d="M874.2 438.15C874.2 437.45 874.2 436.95 874.1 436.45L875.1 436.45 875.2 437.45 875.2 437.45C875.6 436.85 876.1 436.25 877.2 436.25 878.1 436.25 878.7 436.75 879 437.55L879 437.55C879.2 437.15 879.4 436.95 879.7 436.75 880.1 436.45 880.5 436.35 881.1 436.35 881.9 436.35 883.2 436.85 883.2 439.05L883.2 442.75 882.1 442.75 882.1 439.15C882.1 437.95 881.7 437.25 880.7 437.25 880.1 437.25 879.5 437.75 879.3 438.25 879.2 438.45 879.2 438.65 879.2 438.85L879.2 442.75 878.1 442.75 878.1 438.95C878.1 437.95 877.7 437.25 876.8 437.25 876.1 437.25 875.6 437.85 875.4 438.35 875.3 438.55 875.3 438.75 875.3 438.95L875.3 442.75 874.2 442.75 874.2 438.15Z" fill="#333333"/><path d="M885.4 438.55C885.4 437.75 885.4 437.05 885.3 436.45L886.3 436.45 886.4 437.55 886.4 437.55C886.9 436.75 887.6 436.35 888.6 436.35 890.1 436.35 891.3 437.65 891.3 439.55 891.3 441.85 889.9 442.95 888.4 442.95 887.6 442.95 886.8 442.55 886.5 441.95L886.5 441.95 886.5 445.35 885.4 445.35 885.4 438.55ZM886.5 440.15C886.5 440.35 886.5 440.45 886.6 440.65 886.8 441.45 887.5 441.95 888.3 441.95 889.5 441.95 890.2 440.95 890.2 439.55 890.2 438.25 889.5 437.25 888.3 437.25 887.5 437.25 886.8 437.85 886.6 438.65 886.6 438.75 886.5 438.95 886.5 439.15L886.5 440.15Z" fill="#333333"/><path d="M898.8 439.55C898.8 441.85 897.2 442.85 895.7 442.85 894 442.85 892.7 441.65 892.7 439.65 892.7 437.55 894.1 436.35 895.8 436.35 897.6 436.35 898.8 437.65 898.8 439.55ZM893.8 439.65C893.8 441.05 894.6 442.05 895.7 442.05 896.8 442.05 897.6 441.05 897.6 439.65 897.6 438.55 897.1 437.25 895.7 437.25 894.4 437.15 893.8 438.45 893.8 439.65Z" fill="#333333"/><path d="M899.8 444.35C900.7 443.05 901.4 441.35 901.4 439.05 901.4 436.75 900.7 435.05 899.8 433.75L900.7 433.75C901.5 434.85 902.4 436.45 902.4 439.05 902.4 441.55 901.5 443.25 900.7 444.35L899.8 444.35Z" fill="#333333"/><path d="M826.9 198.25 826.9 403.25" stroke="#FFFFFF" fill="none"/><path d="M822.6 202.55 827 197.65 831.3 202.55" stroke="#FFFFFF" stroke-linecap="round" stroke-linejoin="round" fill="none"/><path d="M831.3 398.95 826.9 403.85 822.6 398.95" stroke="#FFFFFF" stroke-linecap="round" stroke-linejoin="round" fill="none"/></g></svg>