<?xml version="1.0" encoding="UTF-8" standalone="no"?>
<!-- Created with Inkscape (http://www.inkscape.org/) -->
<svg
   xmlns:dc="http://purl.org/dc/elements/1.1/"
   xmlns:cc="http://creativecommons.org/ns#"
   xmlns:rdf="http://www.w3.org/1999/02/22-rdf-syntax-ns#"
   xmlns:svg="http://www.w3.org/2000/svg"
   xmlns="http://www.w3.org/2000/svg"
   xmlns:xlink="http://www.w3.org/1999/xlink"
   xmlns:sodipodi="http://sodipodi.sourceforge.net/DTD/sodipodi-0.dtd"
   xmlns:inkscape="http://www.inkscape.org/namespaces/inkscape"
   width="501.78735"
   height="602.7738"
   id="svg3364"
   sodipodi:version="0.32"
   inkscape:version="0.45+0.46pre3+devel"
   sodipodi:docbase="F:\Mis documentos\Mis imágenes\Banderas y escudos\svg\figuras y ornamentos\escudos realizados"
   sodipodi:docname="Escudo_de_Goñi.svg"
   inkscape:output_extension="org.inkscape.output.svg.inkscape"
   version="1.0">
  <defs
     id="defs3366">
    <inkscape:perspective
       sodipodi:type="inkscape:persp3d"
       inkscape:vp_x="0 : 325 : 1"
       inkscape:vp_y="0 : 1000 : 0"
       inkscape:vp_z="550 : 325 : 1"
       inkscape:persp3d-origin="275 : 216.66667 : 1"
       id="perspective22" />
    <linearGradient
       id="linearGradient4476">
      <stop
         style="stop-color:#403800;stop-opacity:1;"
         offset="0"
         id="stop4478" />
      <stop
         id="stop3321"
         offset="0.5"
         style="stop-color:#c8af00;stop-opacity:1;" />
      <stop
         style="stop-color:#403900;stop-opacity:1;"
         offset="1"
         id="stop4480" />
    </linearGradient>
    <linearGradient
       y2="343.1196"
       x2="416.20303"
       y1="343.1196"
       x1="133.79698"
       gradientTransform="matrix(0.9997456,0,0,1.0000001,10.22273,484.98607)"
       gradientUnits="userSpaceOnUse"
       id="linearGradient8174"
       xlink:href="#linearGradient4476"
       inkscape:collect="always" />
  </defs>
  <sodipodi:namedview
     id="base"
     pagecolor="#ffffff"
     bordercolor="#666666"
     borderopacity="1.0"
     inkscape:pageopacity="0.0"
     inkscape:pageshadow="2"
     inkscape:zoom="0.52923077"
     inkscape:cx="209.46537"
     inkscape:cy="289.09884"
     inkscape:document-units="px"
     inkscape:current-layer="layer1"
     inkscape:window-width="1024"
     inkscape:window-height="712"
     inkscape:window-x="0"
     inkscape:window-y="22"
     width="550px"
     height="650px"
     showguides="true"
     inkscape:guide-bbox="true"
     showgrid="false" />
  <metadata
     id="metadata3369">
    <rdf:RDF>
      <cc:Work
         rdf:about="">
        <dc:format>image/svg+xml</dc:format>
        <dc:type
           rdf:resource="http://purl.org/dc/dcmitype/StillImage" />
      </cc:Work>
    </rdf:RDF>
  </metadata>
  <g
     inkscape:label="Capa 1"
     inkscape:groupmode="layer"
     id="layer1"
     transform="translate(-149.92279,-459.11288)">
    <path
       sodipodi:nodetypes="cccscccc"
       style="fill:#ed1c24;fill-opacity:1;stroke:#000000;stroke-width:3;stroke-linecap:round;stroke-miterlimit:3.863693;stroke-dasharray:none"
       id="path2640"
       d="M 151.42279,460.61288 L 650.21014,460.61288 L 650.21014,793.76413 C 650.15699,941.17309 538.8903,1060.3867 401.0996,1060.3867 C 266.43767,1060.3867 156.33712,952.371 151.42279,817.24182 L 151.42279,817.241 L 151.42279,460.61288 L 151.42279,460.61288 z"
       stroke-miterlimit="3.863693" />
    <g
       style="stroke:#3c3c3c;stroke-width:0.19481821;stroke-miterlimit:4;stroke-dasharray:none;stroke-opacity:0.23529412"
       id="g6147"
       transform="matrix(5.1329901,0,0,5.1329901,294.19509,-3294.0363)">
      <g
         transform="translate(3.6609556,12.571611)"
         id="g6149"
         style="stroke-width:0.19481821;stroke-miterlimit:4;stroke-dasharray:none">
        <path
           id="path6151"
           style="fill:#eac102;fill-opacity:1;fill-rule:evenodd;stroke:#090806;stroke-width:0.19481821;stroke-linecap:butt;stroke-linejoin:miter;stroke-miterlimit:4;stroke-dasharray:none;stroke-opacity:1;display:inline"
           d="M -0.04546092,793.45836 C -0.15076074,785.42372 5.3457932,777.45899 16.767782,777.18092 C 39.596314,777.95054 40.602697,809.86593 16.767782,810.15968 C 5.7672942,809.60205 0.059989761,801.49299 -0.04546092,793.45836 z M 3.6883078,793.05868 C 3.4889221,799.5675 8.0002828,806.32828 16.941722,806.78067 C 35.728218,806.54957 34.935024,781.44395 16.941722,780.83856 C 8.2203237,781.05039 3.8755683,786.94434 3.6883078,793.05868 z" />
      </g>
    </g>
    <g
       style="stroke:#3c3c3c;stroke-width:0.19481821;stroke-miterlimit:4;stroke-dasharray:none;stroke-opacity:0.23529412"
       id="g6153"
       transform="matrix(5.1329901,0,0,5.1329901,168.46837,-3509.2834)">
      <g
         transform="translate(3.6609556,12.571611)"
         id="g6155"
         style="stroke-width:0.19481821;stroke-miterlimit:4;stroke-dasharray:none">
        <path
           id="path6157"
           style="fill:#eac102;fill-opacity:1;fill-rule:evenodd;stroke:#090806;stroke-width:0.19481821;stroke-linecap:butt;stroke-linejoin:miter;stroke-miterlimit:4;stroke-dasharray:none;stroke-opacity:1;display:inline"
           d="M -0.04546092,793.45836 C -0.15076074,785.42372 5.3457932,777.45899 16.767782,777.18092 C 39.596314,777.95054 40.602697,809.86593 16.767782,810.15968 C 5.7672942,809.60205 0.059989761,801.49299 -0.04546092,793.45836 z M 3.6883078,793.05868 C 3.4889221,799.5675 8.0002828,806.32828 16.941722,806.78067 C 35.728218,806.54957 34.935024,781.44395 16.941722,780.83856 C 8.2203237,781.05039 3.8755683,786.94434 3.6883078,793.05868 z" />
      </g>
    </g>
    <g
       style="stroke:#3c3c3c;stroke-width:0.19481821;stroke-miterlimit:4;stroke-dasharray:none;stroke-opacity:0.23529412"
       id="g6159"
       transform="matrix(5.1329901,0,0,5.1329901,423.55558,-3509.2834)">
      <g
         transform="translate(3.6609556,12.571611)"
         id="g6161"
         style="stroke-width:0.19481821;stroke-miterlimit:4;stroke-dasharray:none">
        <path
           id="path6163"
           style="fill:#eac102;fill-opacity:1;fill-rule:evenodd;stroke:#090806;stroke-width:0.19481821;stroke-linecap:butt;stroke-linejoin:miter;stroke-miterlimit:4;stroke-dasharray:none;stroke-opacity:1;display:inline"
           d="M -0.04546092,793.45836 C -0.15076074,785.42372 5.3457932,777.45899 16.767782,777.18092 C 39.596314,777.95054 40.602697,809.86593 16.767782,810.15968 C 5.7672942,809.60205 0.059989761,801.49299 -0.04546092,793.45836 z M 3.6883078,793.05868 C 3.4889221,799.5675 8.0002828,806.32828 16.941722,806.78067 C 35.728218,806.54957 34.935024,781.44395 16.941722,780.83856 C 8.2203237,781.05039 3.8755683,786.94434 3.6883078,793.05868 z" />
      </g>
    </g>
  </g>
</svg>
